<svg xmlns="http://www.w3.org/2000/svg" xmlns:xlink="http://www.w3.org/1999/xlink" zoomAndPan="magnify" preserveAspectRatio="xMidYMid meet" version="1.0" viewBox="313.17 292.85 798.8 224.96"><defs><g/><clipPath id="bf2c09a5e0"><path d="M 383 375.386719 L 510 375.386719 L 510 499 L 383 499 Z M 383 375.386719 " clip-rule="nonzero"/></clipPath><clipPath id="15c157f3aa"><rect x="0" width="491" y="0" height="135"/></clipPath></defs><path fill="#c5a059" d="M 488.320312 414.335938 C 488.152344 414.015625 487.960938 413.6875 487.929688 413.605469 C 487.40625 412.359375 487.074219 411.015625 486.921875 409.671875 C 486.503906 405.988281 487.289062 402.582031 488.8125 399.210938 C 489.269531 398.195312 489.769531 397.199219 490.25 396.191406 C 490.308594 396.070312 490.5625 395.328125 490.738281 395.324219 C 490.867188 395.320312 490.921875 396.410156 490.929688 396.5 C 491.0625 397.867188 491.234375 399.242188 491.46875 400.59375 C 492.121094 404.363281 492.664062 408.253906 491.75 412.046875 C 491.441406 413.335938 490.851562 415.066406 489.566406 415.785156 C 488.574219 422.671875 485.320312 428.851562 483.007812 435.378906 C 483.328125 434.808594 483.660156 434.246094 484.011719 433.695312 C 487.121094 428.816406 491.375 425.191406 496.617188 422.742188 C 497.75 422.214844 498.894531 421.714844 500.054688 421.246094 C 500.1875 421.195312 501.011719 420.757812 501.125 420.894531 C 501.292969 421.101562 500.605469 422.238281 500.511719 422.429688 C 499.730469 424.074219 498.886719 425.691406 498.097656 427.332031 C 495.5625 432.601562 491.183594 436.550781 486.164062 439.460938 C 484.910156 440.191406 482.835938 441.597656 481.207031 441.667969 C 479.933594 447.757812 480.054688 453.878906 481.183594 459.941406 C 481.242188 459.113281 481.320312 458.285156 481.410156 457.457031 C 481.796875 453.976562 482.460938 449.410156 484.765625 446.449219 C 484.59375 446.269531 484.453125 446.054688 484.347656 445.8125 C 483.886719 444.734375 484.402344 443.476562 485.5 443.007812 C 486.59375 442.539062 487.859375 443.035156 488.320312 444.117188 C 488.78125 445.199219 488.265625 446.457031 487.171875 446.925781 C 486.804688 447.078125 486.421875 447.128906 486.054688 447.085938 C 483.746094 449.824219 483.1875 454.261719 482.820312 457.597656 C 482.769531 458.042969 482.722656 458.492188 482.683594 458.941406 C 483.710938 454.625 485.527344 450.371094 488.433594 446.964844 C 488.828125 446.5 490.992188 443.640625 491.84375 443.910156 C 492.0625 443.980469 491.753906 445.136719 491.730469 445.300781 C 491.503906 446.828125 491.441406 448.382812 491.402344 449.921875 C 491.261719 455.242188 489.839844 459.734375 486.46875 464.035156 C 485.496094 465.277344 483.984375 466.082031 483.003906 467.265625 C 483.863281 470.210938 484.792969 473.132812 485.667969 476.066406 C 485.808594 475.648438 485.957031 475.230469 486.105469 474.8125 C 486.992188 472.3125 488.183594 469.964844 489.828125 467.863281 C 489.871094 467.8125 489.914062 467.769531 489.964844 467.730469 C 489.929688 467.667969 489.898438 467.605469 489.871094 467.539062 C 489.410156 466.457031 489.925781 465.199219 491.023438 464.734375 C 492.117188 464.265625 493.382812 464.761719 493.84375 465.84375 C 494.304688 466.925781 493.789062 468.183594 492.695312 468.648438 C 492.125 468.894531 491.511719 468.875 490.988281 468.652344 C 490.976562 468.671875 490.960938 468.695312 490.945312 468.714844 C 489.394531 470.695312 488.277344 472.910156 487.4375 475.269531 C 487.144531 476.089844 486.863281 476.917969 486.597656 477.746094 C 486.558594 477.871094 486.578125 478.0625 486.574219 478.238281 C 486.570312 478.480469 486.542969 478.707031 486.492188 478.867188 L 486.484375 478.886719 C 487.273438 481.710938 487.972656 484.554688 488.46875 487.464844 C 488.777344 489.285156 488.96875 491.128906 489.15625 492.964844 C 489.191406 493.292969 489.359375 493.957031 489.351562 494.480469 C 489.347656 494.855469 489.25 495.179688 489.085938 495.40625 C 488.855469 495.722656 488.414062 495.796875 488.097656 495.570312 C 487.792969 495.355469 487.714844 494.9375 487.921875 494.625 C 487.921875 494.582031 487.933594 494.296875 487.914062 494.125 C 487.867188 493.738281 487.773438 493.347656 487.75 493.121094 C 487.5625 491.316406 487.378906 489.5 487.070312 487.710938 C 486.632812 485.148438 486.035156 482.628906 485.359375 480.136719 C 484.972656 479.808594 484.539062 479.484375 484.5 479.457031 C 482.675781 478.128906 480.53125 477.121094 478.441406 476.28125 C 473.523438 474.316406 470.082031 471.488281 468.472656 466.339844 C 468.226562 465.554688 467.121094 462.660156 467.699219 461.824219 C 467.742188 461.765625 468.746094 462.589844 468.820312 462.644531 C 470.113281 463.585938 471.386719 464.546875 472.644531 465.535156 C 475.515625 467.804688 478.242188 470.171875 480.96875 472.605469 C 482.0625 473.582031 483.117188 474.460938 484.011719 475.476562 C 482.980469 472.050781 481.882812 468.640625 480.9375 465.179688 C 479.90625 461.402344 479.222656 457.589844 478.976562 453.769531 C 478.566406 453.671875 477.847656 453.609375 477.585938 453.519531 C 476.328125 453.09375 475.132812 452.507812 473.996094 451.828125 C 469.183594 448.929688 465.875 444.039062 464.242188 438.757812 C 463.707031 437.035156 463.253906 435.273438 462.984375 433.488281 C 462.949219 433.246094 462.675781 432.074219 463.035156 431.90625 C 463.210938 431.820312 463.921875 433.015625 464.015625 433.136719 C 465.019531 434.453125 466.253906 435.550781 467.417969 436.722656 C 471.070312 440.414062 474.777344 444.324219 477.515625 448.792969 C 477.3125 447.871094 477.109375 446.953125 476.882812 446.042969 C 475.851562 441.890625 474.667969 437.921875 472.203125 434.390625 C 472.195312 434.378906 472.1875 434.367188 472.179688 434.355469 C 471.148438 434.652344 470.039062 434.152344 469.613281 433.15625 C 469.152344 432.074219 469.667969 430.816406 470.765625 430.347656 C 471.863281 429.878906 473.128906 430.378906 473.589844 431.457031 C 473.894531 432.171875 473.773438 432.960938 473.339844 433.550781 C 473.351562 433.5625 473.359375 433.574219 473.367188 433.585938 C 475.933594 437.257812 477.183594 441.378906 478.257812 445.695312 C 478.496094 446.65625 478.710938 447.625 478.921875 448.59375 C 479.070312 445.234375 479.582031 441.871094 480.523438 438.523438 C 481.257812 435.90625 482.230469 433.367188 483.242188 430.851562 C 483.226562 430.667969 483.230469 430.230469 483.175781 430.050781 C 483 429.464844 482.789062 428.882812 482.539062 428.320312 C 481.828125 426.726562 480.878906 425.246094 479.933594 423.785156 C 476.824219 418.988281 474.632812 414.636719 474.359375 408.777344 C 474.296875 407.457031 474.296875 406.117188 474.472656 404.796875 C 474.496094 404.640625 474.542969 403.617188 474.738281 403.535156 C 474.824219 403.496094 475.601562 404.90625 475.660156 404.996094 C 476.664062 406.550781 477.773438 408.042969 478.855469 409.542969 C 481.355469 413.007812 482.332031 416.839844 483.292969 420.9375 C 483.566406 422.09375 483.832031 423.167969 484.050781 424.207031 C 484.167969 423.132812 484.25 422.050781 484.277344 420.96875 C 484.398438 416.476562 484.046875 412.015625 482.777344 407.710938 C 481.960938 407.695312 481.1875 407.21875 480.851562 406.425781 C 480.390625 405.34375 480.90625 404.085938 482 403.621094 C 483.097656 403.152344 484.363281 403.648438 484.824219 404.730469 C 485.214844 405.648438 484.902344 406.695312 484.128906 407.273438 C 485.445312 411.726562 485.816406 416.34375 485.695312 420.988281 C 485.652344 422.582031 485.492188 424.171875 485.289062 425.753906 C 486.710938 422.070312 487.925781 418.332031 488.320312 414.335938 Z M 482.070312 462.199219 C 482.058594 462.195312 482.046875 462.191406 482.035156 462.1875 C 482.046875 462.191406 482.058594 462.195312 482.070312 462.199219 Z M 482.070312 462.199219 " fill-opacity="1" fill-rule="evenodd"/><g clip-path="url(#bf2c09a5e0)"><path fill="#c5a059" d="M 462.441406 440.054688 L 460.054688 431.691406 L 418.140625 431.691406 L 418.140625 392.648438 C 418.140625 388.0625 419.191406 384.53125 421.304688 382.050781 C 423.285156 379.699219 427.6875 378.519531 434.503906 378.519531 L 434.503906 375.359375 L 383.003906 375.359375 L 383.003906 378.519531 L 384.121094 378.707031 C 385.859375 378.953125 387.15625 379.140625 388.027344 379.261719 C 390.253906 379.636719 392.054688 380.007812 393.417969 380.378906 C 394.78125 380.75 396.140625 381.988281 397.503906 384.097656 C 398.621094 386.328125 399.183594 389.859375 399.183594 394.695312 L 399.183594 477.792969 C 399.183594 483.867188 398.253906 488.207031 396.394531 490.808594 C 394.535156 493.410156 390.066406 494.710938 383.003906 494.710938 L 383.003906 498.429688 L 434.503906 498.429688 L 434.503906 494.710938 C 428.429688 494.710938 424.214844 493.71875 421.859375 491.738281 C 419.378906 489.628906 418.140625 486.160156 418.140625 481.328125 L 418.140625 440.054688 Z M 493.96875 485.078125 L 473.9375 485.078125 C 473.824219 486.070312 473.691406 486.988281 473.546875 487.832031 C 472.796875 490.558594 471.621094 492.171875 470.007812 492.667969 C 468.148438 493.410156 466.417969 493.90625 464.804688 494.15625 C 462.824219 494.527344 460.589844 494.710938 458.109375 494.710938 L 458.109375 498.429688 L 509.976562 498.429688 L 509.976562 494.710938 C 505.394531 494.710938 501.863281 494.15625 499.386719 493.039062 C 497.027344 491.921875 495.480469 490.3125 494.738281 488.207031 C 494.40625 487.273438 494.148438 486.230469 493.96875 485.078125 Z M 474.472656 394.59375 L 493.621094 394.59375 L 493.621094 393.578125 C 493.621094 388.867188 494.238281 385.523438 495.480469 383.539062 C 496.71875 381.554688 498.203125 380.378906 499.941406 380.007812 L 509.976562 378.890625 L 509.976562 375.359375 L 458.109375 375.359375 L 458.109375 378.519531 C 459.601562 378.519531 461.460938 378.644531 463.6875 378.890625 C 464.0625 379.015625 464.925781 379.261719 466.289062 379.636719 C 466.785156 379.757812 467.65625 380.007812 468.898438 380.378906 C 470.878906 381 472.304688 382.300781 473.171875 384.28125 C 474.035156 386.140625 474.472656 388.992188 474.472656 392.835938 Z M 474.472656 394.59375 " fill-opacity="1" fill-rule="nonzero"/></g><path fill="#c5a059" d="M 463.839844 515.597656 L 514.890625 515.597656 C 515.664062 515.605469 516.429688 515.535156 517.191406 515.390625 C 517.949219 515.25 518.6875 515.03125 519.402344 514.742188 C 520.121094 514.457031 520.800781 514.101562 521.449219 513.675781 C 522.097656 513.253906 522.695312 512.773438 523.25 512.234375 C 523.800781 511.695312 524.296875 511.105469 524.734375 510.46875 C 525.171875 509.832031 525.539062 509.15625 525.847656 508.449219 C 526.152344 507.738281 526.382812 507.003906 526.542969 506.25 C 526.707031 505.492188 526.792969 504.730469 526.804688 503.957031 L 526.804688 398.421875 C 526.8125 397.648438 526.902344 396.882812 527.0625 396.128906 C 527.222656 395.375 527.457031 394.640625 527.761719 393.933594 C 528.066406 393.222656 528.4375 392.550781 528.875 391.914062 C 529.3125 391.277344 529.808594 390.6875 530.359375 390.148438 C 530.914062 389.609375 531.511719 389.128906 532.160156 388.707031 C 532.804688 388.285156 533.488281 387.933594 534.203125 387.644531 C 534.921875 387.355469 535.65625 387.140625 536.417969 386.996094 C 537.175781 386.855469 537.941406 386.785156 538.714844 386.792969 L 552.113281 386.792969 C 558.671875 386.792969 559.558594 383.882812 554.144531 380.335938 L 518.101562 356.902344 C 512.6875 353.34375 503.734375 347.542969 498.285156 343.988281 L 461.742188 319.5 L 461.742188 316.894531 L 553.25 376.488281 C 559.875 381.488281 560.242188 383.972656 559.753906 385.542969 C 559.265625 387.113281 557.546875 388.980469 552.121094 388.980469 L 538.71875 388.980469 C 538.09375 388.972656 537.472656 389.03125 536.855469 389.144531 C 536.238281 389.261719 535.640625 389.4375 535.058594 389.671875 C 534.476562 389.90625 533.925781 390.195312 533.398438 390.535156 C 532.875 390.878906 532.386719 391.269531 531.9375 391.707031 C 531.492188 392.144531 531.089844 392.621094 530.734375 393.136719 C 530.378906 393.65625 530.078125 394.203125 529.828125 394.777344 C 529.582031 395.351562 529.390625 395.949219 529.261719 396.558594 C 529.128906 397.171875 529.058594 397.792969 529.050781 398.421875 L 529.050781 503.992188 C 529.039062 504.910156 528.9375 505.816406 528.746094 506.714844 C 528.558594 507.609375 528.28125 508.480469 527.921875 509.324219 C 527.558594 510.167969 527.117188 510.96875 526.601562 511.722656 C 526.082031 512.480469 525.492188 513.179688 524.839844 513.820312 C 524.183594 514.460938 523.46875 515.035156 522.699219 515.535156 C 521.933594 516.035156 521.121094 516.457031 520.269531 516.796875 C 519.417969 517.140625 518.542969 517.394531 517.640625 517.5625 C 516.738281 517.734375 515.828125 517.8125 514.914062 517.804688 L 463.839844 517.804688 Z M 463.839844 515.597656 " fill-opacity="1" fill-rule="nonzero"/><path fill="#c5a059" d="M 356.441406 502.476562 L 356.441406 407.785156 C 356.4375 406.644531 356.3125 405.511719 356.066406 404.398438 C 355.816406 403.28125 355.453125 402.207031 354.972656 401.167969 C 354.488281 400.132812 353.902344 399.160156 353.207031 398.25 C 352.515625 397.34375 351.730469 396.519531 350.859375 395.78125 C 351.898438 396.996094 352.695312 398.355469 353.25 399.855469 C 353.804688 401.359375 354.082031 402.910156 354.078125 404.511719 L 354.078125 499.160156 C 354.082031 500.476562 354.226562 501.78125 354.511719 503.070312 C 354.796875 504.355469 355.222656 505.597656 355.777344 506.792969 C 356.335938 507.988281 357.019531 509.109375 357.820312 510.15625 C 358.625 511.203125 359.53125 512.148438 360.542969 513 C 359.226562 511.558594 358.21875 509.933594 357.511719 508.121094 C 356.804688 506.304688 356.445312 504.421875 356.441406 502.476562 Z M 356.441406 502.476562 " fill-opacity="1" fill-rule="nonzero"/><path fill="#c5a059" d="M 553.691406 407.785156 L 553.691406 502.476562 C 553.6875 504.425781 553.332031 506.3125 552.625 508.132812 C 551.917969 509.953125 550.90625 511.582031 549.589844 513.027344 C 550.601562 512.175781 551.507812 511.226562 552.3125 510.179688 C 553.117188 509.128906 553.800781 508.007812 554.359375 506.808594 C 554.917969 505.613281 555.339844 504.367188 555.628906 503.078125 C 555.914062 501.785156 556.058594 500.480469 556.058594 499.160156 L 556.058594 404.511719 C 556.058594 402.914062 556.335938 401.363281 556.894531 399.867188 C 557.449219 398.367188 558.25 397.011719 559.292969 395.800781 C 558.417969 396.535156 557.632812 397.359375 556.9375 398.265625 C 556.242188 399.171875 555.652344 400.140625 555.171875 401.175781 C 554.6875 402.210938 554.320312 403.285156 554.070312 404.402344 C 553.820312 405.515625 553.695312 406.644531 553.691406 407.785156 Z M 553.691406 407.785156 " fill-opacity="1" fill-rule="nonzero"/><path fill="#c5a059" d="M 591.1875 377.976562 L 469.496094 296.855469 C 468.410156 296.203125 467.289062 295.625 466.125 295.125 C 464.960938 294.625 463.769531 294.207031 462.550781 293.867188 C 461.332031 293.53125 460.09375 293.277344 458.839844 293.105469 C 457.585938 292.933594 456.324219 292.847656 455.058594 292.847656 C 453.792969 292.847656 452.53125 292.933594 451.277344 293.105469 C 450.023438 293.277344 448.785156 293.53125 447.566406 293.867188 C 446.347656 294.207031 445.15625 294.625 443.992188 295.125 C 442.828125 295.625 441.707031 296.203125 440.621094 296.855469 L 318.949219 377.976562 C 313.265625 381.765625 312.769531 384.878906 313.359375 386.8125 C 313.765625 388.058594 314.546875 388.992188 315.703125 389.609375 C 315.058594 388.003906 316.519531 385.75 320.261719 383.261719 L 367.972656 351.453125 L 394.230469 333.953125 L 441.941406 302.148438 C 442.929688 301.558594 443.953125 301.039062 445.007812 300.589844 C 446.066406 300.136719 447.152344 299.757812 448.261719 299.453125 C 449.367188 299.148438 450.492188 298.917969 451.632812 298.765625 C 452.773438 298.609375 453.917969 298.535156 455.070312 298.535156 C 456.21875 298.535156 457.363281 298.609375 458.503906 298.765625 C 459.644531 298.917969 460.769531 299.148438 461.878906 299.453125 C 462.984375 299.757812 464.070312 300.136719 465.128906 300.589844 C 466.1875 301.039062 467.210938 301.558594 468.199219 302.148438 L 515.90625 333.953125 L 542.164062 351.453125 L 589.875 383.261719 C 593.617188 385.75 595.070312 388 594.429688 389.609375 C 595.585938 388.992188 596.367188 388.0625 596.769531 386.8125 C 597.398438 384.886719 596.871094 381.765625 591.1875 377.976562 Z M 591.1875 377.976562 " fill-opacity="1" fill-rule="nonzero"/><g transform="matrix(1, 0, 0, 1, 621, 337)"><g clip-path="url(#15c157f3aa)"><g fill="#c5a059" fill-opacity="1"><g transform="translate(1.141515, 108.795736)"><g><path d="M 45.75 0 L 45.75 -1.984375 C 48 -2.117188 49.703125 -2.382812 50.859375 -2.78125 C 52.023438 -3.175781 52.804688 -3.972656 53.203125 -5.171875 C 53.597656 -6.367188 53.796875 -8.160156 53.796875 -10.546875 L 53.796875 -59.875 C 53.796875 -62.320312 53.597656 -64.125 53.203125 -65.28125 C 52.804688 -66.445312 52.023438 -67.242188 50.859375 -67.671875 C 49.703125 -68.109375 48 -68.359375 45.75 -68.421875 L 45.75 -70.40625 C 47.269531 -70.34375 49.191406 -70.273438 51.515625 -70.203125 C 53.835938 -70.140625 56.125 -70.109375 58.375 -70.109375 C 60.957031 -70.109375 63.375 -70.140625 65.625 -70.203125 C 67.882812 -70.273438 69.710938 -70.34375 71.109375 -70.40625 L 71.109375 -68.421875 C 68.859375 -68.359375 67.148438 -68.109375 65.984375 -67.671875 C 64.828125 -67.242188 64.046875 -66.445312 63.640625 -65.28125 C 63.242188 -64.125 63.046875 -62.320312 63.046875 -59.875 L 63.046875 -10.546875 C 63.046875 -8.160156 63.242188 -6.367188 63.640625 -5.171875 C 64.046875 -3.972656 64.828125 -3.175781 65.984375 -2.78125 C 67.148438 -2.382812 68.859375 -2.117188 71.109375 -1.984375 L 71.109375 0 C 69.710938 -0.132812 67.882812 -0.21875 65.625 -0.25 C 63.375 -0.28125 60.957031 -0.296875 58.375 -0.296875 C 56.125 -0.296875 53.835938 -0.28125 51.515625 -0.25 C 49.191406 -0.21875 47.269531 -0.132812 45.75 0 Z M 4.171875 0 L 4.171875 -1.984375 C 6.429688 -2.117188 8.140625 -2.382812 9.296875 -2.78125 C 10.460938 -3.175781 11.242188 -3.972656 11.640625 -5.171875 C 12.035156 -6.367188 12.234375 -8.160156 12.234375 -10.546875 L 12.234375 -59.875 C 12.234375 -62.320312 12.035156 -64.125 11.640625 -65.28125 C 11.242188 -66.445312 10.460938 -67.242188 9.296875 -67.671875 C 8.140625 -68.109375 6.429688 -68.359375 4.171875 -68.421875 L 4.171875 -70.40625 C 5.566406 -70.34375 7.390625 -70.273438 9.640625 -70.203125 C 11.898438 -70.140625 14.320312 -70.109375 16.90625 -70.109375 C 19.226562 -70.109375 21.53125 -70.140625 23.8125 -70.203125 C 26.101562 -70.273438 28.007812 -70.34375 29.53125 -70.40625 L 29.53125 -68.421875 C 27.28125 -68.359375 25.570312 -68.109375 24.40625 -67.671875 C 23.25 -67.242188 22.472656 -66.445312 22.078125 -65.28125 C 21.679688 -64.125 21.484375 -62.320312 21.484375 -59.875 L 21.484375 -10.546875 C 21.484375 -8.160156 21.679688 -6.367188 22.078125 -5.171875 C 22.472656 -3.972656 23.25 -3.175781 24.40625 -2.78125 C 25.570312 -2.382812 27.28125 -2.117188 29.53125 -1.984375 L 29.53125 0 C 28.007812 -0.132812 26.101562 -0.21875 23.8125 -0.25 C 21.53125 -0.28125 19.226562 -0.296875 16.90625 -0.296875 C 14.320312 -0.296875 11.898438 -0.28125 9.640625 -0.25 C 7.390625 -0.21875 5.566406 -0.132812 4.171875 0 Z M 18 -34.40625 L 18 -36.40625 L 57.28125 -36.40625 L 57.28125 -34.40625 Z M 18 -34.40625 "/></g></g></g><g fill="#c5a059" fill-opacity="1"><g transform="translate(76.425626, 108.795736)"><g><path d="M 32.125 -70.90625 L 56.390625 -8.359375 C 57.378906 -5.835938 58.503906 -4.160156 59.765625 -3.328125 C 61.023438 -2.503906 62.1875 -2.054688 63.25 -1.984375 L 63.25 0 C 61.925781 -0.132812 60.300781 -0.21875 58.375 -0.25 C 56.457031 -0.28125 54.535156 -0.296875 52.609375 -0.296875 C 50.023438 -0.296875 47.601562 -0.28125 45.34375 -0.25 C 43.09375 -0.21875 41.269531 -0.132812 39.875 0 L 39.875 -1.984375 C 43.257812 -2.117188 45.414062 -2.695312 46.34375 -3.71875 C 47.269531 -4.75 47.070312 -6.957031 45.75 -10.34375 L 27.25 -59.765625 L 28.84375 -61.0625 L 11.53125 -16.109375 C 10.476562 -13.460938 9.847656 -11.222656 9.640625 -9.390625 C 9.441406 -7.566406 9.625 -6.125 10.1875 -5.0625 C 10.757812 -4.007812 11.722656 -3.25 13.078125 -2.78125 C 14.429688 -2.320312 16.140625 -2.054688 18.203125 -1.984375 L 18.203125 0 C 16.347656 -0.132812 14.40625 -0.21875 12.375 -0.25 C 10.351562 -0.28125 8.484375 -0.296875 6.765625 -0.296875 C 5.109375 -0.296875 3.695312 -0.28125 2.53125 -0.25 C 1.375 -0.21875 0.296875 -0.132812 -0.703125 0 L -0.703125 -1.984375 C 0.628906 -2.316406 1.988281 -3.097656 3.375 -4.328125 C 4.769531 -5.554688 6.03125 -7.660156 7.15625 -10.640625 L 30.53125 -70.90625 C 30.800781 -70.90625 31.066406 -70.90625 31.328125 -70.90625 C 31.585938 -70.90625 31.851562 -70.90625 32.125 -70.90625 Z M 44.25 -28.640625 L 44.25 -26.65625 L 14.625 -26.65625 L 15.609375 -28.640625 Z M 44.25 -28.640625 "/></g></g></g><g fill="#c5a059" fill-opacity="1"><g transform="translate(137.090433, 108.795736)"><g><path d="M 4.171875 -70.40625 C 5.566406 -70.34375 7.390625 -70.273438 9.640625 -70.203125 C 11.898438 -70.140625 14.125 -70.109375 16.3125 -70.109375 C 19.425781 -70.109375 22.40625 -70.140625 25.25 -70.203125 C 28.101562 -70.273438 30.128906 -70.3125 31.328125 -70.3125 C 36.703125 -70.3125 41.160156 -69.546875 44.703125 -68.015625 C 48.253906 -66.492188 50.90625 -64.421875 52.65625 -61.796875 C 54.414062 -59.179688 55.296875 -56.253906 55.296875 -53.015625 C 55.296875 -51.023438 54.894531 -48.898438 54.09375 -46.640625 C 53.300781 -44.390625 51.925781 -42.269531 49.96875 -40.28125 C 48.019531 -38.289062 45.351562 -36.648438 41.96875 -35.359375 C 38.582031 -34.066406 34.304688 -33.421875 29.140625 -33.421875 L 19.59375 -33.421875 L 19.59375 -35.40625 L 28.140625 -35.40625 C 32.847656 -35.40625 36.445312 -36.148438 38.9375 -37.640625 C 41.425781 -39.128906 43.113281 -41.117188 44 -43.609375 C 44.894531 -46.097656 45.34375 -48.867188 45.34375 -51.921875 C 45.34375 -57.148438 44.097656 -61.207031 41.609375 -64.09375 C 39.128906 -66.976562 34.875 -68.421875 28.84375 -68.421875 C 25.789062 -68.421875 23.800781 -67.859375 22.875 -66.734375 C 21.945312 -65.609375 21.484375 -63.320312 21.484375 -59.875 L 21.484375 -10.546875 C 21.484375 -8.160156 21.679688 -6.367188 22.078125 -5.171875 C 22.472656 -3.972656 23.25 -3.175781 24.40625 -2.78125 C 25.570312 -2.382812 27.28125 -2.117188 29.53125 -1.984375 L 29.53125 0 C 28.007812 -0.132812 26.101562 -0.21875 23.8125 -0.25 C 21.53125 -0.28125 19.226562 -0.296875 16.90625 -0.296875 C 14.320312 -0.296875 11.898438 -0.28125 9.640625 -0.25 C 7.390625 -0.21875 5.566406 -0.132812 4.171875 0 L 4.171875 -1.984375 C 6.429688 -2.117188 8.140625 -2.382812 9.296875 -2.78125 C 10.460938 -3.175781 11.242188 -3.972656 11.640625 -5.171875 C 12.035156 -6.367188 12.234375 -8.160156 12.234375 -10.546875 L 12.234375 -59.875 C 12.234375 -62.320312 12.035156 -64.125 11.640625 -65.28125 C 11.242188 -66.445312 10.460938 -67.242188 9.296875 -67.671875 C 8.140625 -68.109375 6.429688 -68.359375 4.171875 -68.421875 Z M 19.984375 -35.109375 C 23.566406 -34.972656 26.382812 -34.820312 28.4375 -34.65625 C 30.5 -34.488281 32.175781 -34.335938 33.46875 -34.203125 C 34.757812 -34.078125 36.003906 -33.914062 37.203125 -33.71875 C 41.640625 -32.988281 44.835938 -31.644531 46.796875 -29.6875 C 48.753906 -27.726562 50.195312 -24.695312 51.125 -20.59375 L 53.609375 -10.4375 C 54.265625 -7.519531 54.941406 -5.414062 55.640625 -4.125 C 56.335938 -2.832031 57.414062 -2.21875 58.875 -2.28125 C 60 -2.351562 60.941406 -2.71875 61.703125 -3.375 C 62.472656 -4.039062 63.285156 -4.9375 64.140625 -6.0625 L 65.640625 -4.96875 C 64.242188 -2.914062 62.800781 -1.34375 61.3125 -0.25 C 59.820312 0.84375 57.71875 1.390625 55 1.390625 C 52.539062 1.390625 50.382812 0.660156 48.53125 -0.796875 C 46.675781 -2.253906 45.285156 -5.101562 44.359375 -9.34375 L 42.171875 -19.296875 C 41.566406 -22.148438 40.882812 -24.617188 40.125 -26.703125 C 39.363281 -28.796875 38.300781 -30.4375 36.9375 -31.625 C 35.582031 -32.820312 33.582031 -33.421875 30.9375 -33.421875 L 20.1875 -33.421875 Z M 19.984375 -35.109375 "/></g></g></g><g fill="#c5a059" fill-opacity="1"><g transform="translate(201.534419, 108.795736)"><g><path d="M 82.453125 -70.40625 L 82.453125 -68.421875 C 80.191406 -68.359375 78.476562 -68.109375 77.3125 -67.671875 C 76.15625 -67.242188 75.378906 -66.445312 74.984375 -65.28125 C 74.585938 -64.125 74.390625 -62.320312 74.390625 -59.875 L 74.390625 -10.546875 C 74.390625 -8.160156 74.585938 -6.367188 74.984375 -5.171875 C 75.378906 -3.972656 76.15625 -3.175781 77.3125 -2.78125 C 78.476562 -2.382812 80.191406 -2.117188 82.453125 -1.984375 L 82.453125 0 C 80.921875 -0.132812 79.007812 -0.21875 76.71875 -0.25 C 74.4375 -0.28125 72.132812 -0.296875 69.8125 -0.296875 C 67.226562 -0.296875 64.804688 -0.28125 62.546875 -0.25 C 60.296875 -0.21875 58.476562 -0.132812 57.09375 0 L 57.09375 -1.984375 C 59.34375 -2.117188 61.046875 -2.382812 62.203125 -2.78125 C 63.367188 -3.175781 64.148438 -3.972656 64.546875 -5.171875 C 64.941406 -6.367188 65.140625 -8.160156 65.140625 -10.546875 L 65.140625 -65.234375 L 65.546875 -64.9375 L 41.171875 0.5 L 39.578125 0.5 L 14.515625 -64.046875 L 14.515625 -11.53125 C 14.515625 -9.144531 14.726562 -7.269531 15.15625 -5.90625 C 15.59375 -4.550781 16.457031 -3.59375 17.75 -3.03125 C 19.039062 -2.46875 20.984375 -2.117188 23.578125 -1.984375 L 23.578125 0 C 22.378906 -0.132812 20.816406 -0.21875 18.890625 -0.25 C 16.972656 -0.28125 15.148438 -0.296875 13.421875 -0.296875 C 11.765625 -0.296875 10.09375 -0.28125 8.40625 -0.25 C 6.71875 -0.21875 5.304688 -0.132812 4.171875 0 L 4.171875 -1.984375 C 6.429688 -2.117188 8.140625 -2.46875 9.296875 -3.03125 C 10.460938 -3.59375 11.242188 -4.550781 11.640625 -5.90625 C 12.035156 -7.269531 12.234375 -9.144531 12.234375 -11.53125 L 12.234375 -59.875 C 12.234375 -62.320312 12.035156 -64.125 11.640625 -65.28125 C 11.242188 -66.445312 10.460938 -67.242188 9.296875 -67.671875 C 8.140625 -68.109375 6.429688 -68.359375 4.171875 -68.421875 L 4.171875 -70.40625 C 5.304688 -70.34375 6.71875 -70.273438 8.40625 -70.203125 C 10.09375 -70.140625 11.765625 -70.109375 13.421875 -70.109375 C 14.878906 -70.109375 16.382812 -70.140625 17.9375 -70.203125 C 19.5 -70.273438 20.8125 -70.34375 21.875 -70.40625 L 44.453125 -10.9375 L 42.765625 -10.140625 L 65.140625 -70.109375 C 65.929688 -70.109375 66.707031 -70.109375 67.46875 -70.109375 C 68.238281 -70.109375 69.019531 -70.109375 69.8125 -70.109375 C 72.132812 -70.109375 74.4375 -70.140625 76.71875 -70.203125 C 79.007812 -70.273438 80.921875 -70.34375 82.453125 -70.40625 Z M 82.453125 -70.40625 "/></g></g></g><g fill="#c5a059" fill-opacity="1"><g transform="translate(287.36028, 108.795736)"><g><path d="M 36.890625 -71.8125 C 43.191406 -71.8125 48.710938 -70.382812 53.453125 -67.53125 C 58.191406 -64.675781 61.867188 -60.578125 64.484375 -55.234375 C 67.109375 -49.898438 68.421875 -43.421875 68.421875 -35.796875 C 68.421875 -28.378906 67.078125 -21.882812 64.390625 -16.3125 C 61.710938 -10.738281 57.984375 -6.394531 53.203125 -3.28125 C 48.429688 -0.164062 42.960938 1.390625 36.796875 1.390625 C 30.492188 1.390625 24.972656 -0.03125 20.234375 -2.875 C 15.492188 -5.726562 11.8125 -9.835938 9.1875 -15.203125 C 6.570312 -20.578125 5.265625 -27.046875 5.265625 -34.609375 C 5.265625 -42.035156 6.625 -48.53125 9.34375 -54.09375 C 12.0625 -59.664062 15.789062 -64.007812 20.53125 -67.125 C 25.269531 -70.25 30.722656 -71.8125 36.890625 -71.8125 Z M 36.5 -70.015625 C 32.1875 -70.015625 28.4375 -68.519531 25.25 -65.53125 C 22.070312 -62.550781 19.601562 -58.441406 17.84375 -53.203125 C 16.09375 -47.960938 15.21875 -41.894531 15.21875 -35 C 15.21875 -27.976562 16.191406 -21.863281 18.140625 -16.65625 C 20.097656 -11.445312 22.75 -7.429688 26.09375 -4.609375 C 29.445312 -1.796875 33.148438 -0.390625 37.203125 -0.390625 C 41.503906 -0.390625 45.242188 -1.878906 48.421875 -4.859375 C 51.609375 -7.847656 54.082031 -11.976562 55.84375 -17.25 C 57.601562 -22.519531 58.484375 -28.570312 58.484375 -35.40625 C 58.484375 -42.5 57.503906 -48.628906 55.546875 -53.796875 C 53.585938 -58.972656 50.953125 -62.96875 47.640625 -65.78125 C 44.328125 -68.601562 40.613281 -70.015625 36.5 -70.015625 Z M 36.5 -70.015625 "/></g></g></g><g fill="#c5a059" fill-opacity="1"><g transform="translate(360.257524, 108.795736)"><g><path d="M 66.640625 -70.40625 L 66.640625 -68.421875 C 64.378906 -68.359375 62.664062 -68.023438 61.5 -67.421875 C 60.34375 -66.828125 59.566406 -65.867188 59.171875 -64.546875 C 58.773438 -63.222656 58.578125 -61.332031 58.578125 -58.875 L 58.578125 0.5 C 58.179688 0.5 57.800781 0.5 57.4375 0.5 C 57.070312 0.5 56.691406 0.5 56.296875 0.5 L 14.515625 -64.046875 L 14.515625 -11.53125 C 14.515625 -9.144531 14.726562 -7.269531 15.15625 -5.90625 C 15.59375 -4.550781 16.457031 -3.59375 17.75 -3.03125 C 19.039062 -2.46875 20.984375 -2.117188 23.578125 -1.984375 L 23.578125 0 C 22.378906 -0.132812 20.816406 -0.21875 18.890625 -0.25 C 16.972656 -0.28125 15.148438 -0.296875 13.421875 -0.296875 C 11.765625 -0.296875 10.09375 -0.28125 8.40625 -0.25 C 6.71875 -0.21875 5.304688 -0.132812 4.171875 0 L 4.171875 -1.984375 C 6.429688 -2.117188 8.140625 -2.46875 9.296875 -3.03125 C 10.460938 -3.59375 11.242188 -4.550781 11.640625 -5.90625 C 12.035156 -7.269531 12.234375 -9.144531 12.234375 -11.53125 L 12.234375 -59.875 C 12.234375 -62.320312 12.035156 -64.125 11.640625 -65.28125 C 11.242188 -66.445312 10.460938 -67.242188 9.296875 -67.671875 C 8.140625 -68.109375 6.429688 -68.359375 4.171875 -68.421875 L 4.171875 -70.40625 C 5.304688 -70.34375 6.71875 -70.273438 8.40625 -70.203125 C 10.09375 -70.140625 11.765625 -70.109375 13.421875 -70.109375 C 14.878906 -70.109375 16.269531 -70.140625 17.59375 -70.203125 C 18.925781 -70.273438 20.125 -70.34375 21.1875 -70.40625 L 56.296875 -16.3125 L 56.296875 -58.875 C 56.296875 -61.332031 56.078125 -63.222656 55.640625 -64.546875 C 55.210938 -65.867188 54.351562 -66.828125 53.0625 -67.421875 C 51.769531 -68.023438 49.828125 -68.359375 47.234375 -68.421875 L 47.234375 -70.40625 C 48.429688 -70.34375 50.003906 -70.273438 51.953125 -70.203125 C 53.910156 -70.140625 55.722656 -70.109375 57.390625 -70.109375 C 59.109375 -70.109375 60.8125 -70.140625 62.5 -70.203125 C 64.195312 -70.273438 65.578125 -70.34375 66.640625 -70.40625 Z M 66.640625 -70.40625 "/></g></g></g><g fill="#c5a059" fill-opacity="1"><g transform="translate(430.469662, 108.795736)"><g><path d="M 58.484375 -70.40625 L 58.484375 -68.421875 C 57.222656 -68.160156 55.960938 -67.347656 54.703125 -65.984375 C 53.441406 -64.628906 52.046875 -62.492188 50.515625 -59.578125 L 30.4375 -19.796875 L 28.734375 -19.796875 L 5.46875 -62.75 C 4.144531 -65.207031 3.035156 -66.75 2.140625 -67.375 C 1.242188 -68.007812 0.429688 -68.328125 -0.296875 -68.328125 L -0.296875 -70.40625 C 1.023438 -70.34375 2.398438 -70.273438 3.828125 -70.203125 C 5.253906 -70.140625 6.796875 -70.109375 8.453125 -70.109375 C 10.640625 -70.109375 12.972656 -70.125 15.453125 -70.15625 C 17.941406 -70.195312 20.25 -70.28125 22.375 -70.40625 L 22.375 -68.328125 C 20.71875 -68.328125 19.257812 -68.125 18 -67.71875 C 16.738281 -67.320312 15.910156 -66.59375 15.515625 -65.53125 C 15.117188 -64.476562 15.414062 -62.988281 16.40625 -61.0625 L 33.21875 -28.84375 L 32.421875 -28.25 L 45.65625 -54.59375 C 47.507812 -58.238281 48.414062 -61.054688 48.375 -63.046875 C 48.34375 -65.035156 47.566406 -66.410156 46.046875 -67.171875 C 44.523438 -67.941406 42.367188 -68.359375 39.578125 -68.421875 L 39.578125 -70.40625 C 41.503906 -70.34375 43.460938 -70.273438 45.453125 -70.203125 C 47.441406 -70.140625 49.296875 -70.109375 51.015625 -70.109375 C 52.742188 -70.109375 54.171875 -70.140625 55.296875 -70.203125 C 56.421875 -70.273438 57.484375 -70.34375 58.484375 -70.40625 Z M 34.90625 -30.234375 L 34.90625 -10.546875 C 34.90625 -8.160156 35.101562 -6.367188 35.5 -5.171875 C 35.894531 -3.972656 36.671875 -3.175781 37.828125 -2.78125 C 38.992188 -2.382812 40.707031 -2.117188 42.96875 -1.984375 L 42.96875 0 C 41.4375 -0.132812 39.523438 -0.21875 37.234375 -0.25 C 34.953125 -0.28125 32.648438 -0.296875 30.328125 -0.296875 C 27.742188 -0.296875 25.320312 -0.28125 23.0625 -0.25 C 20.8125 -0.21875 18.992188 -0.132812 17.609375 0 L 17.609375 -1.984375 C 19.859375 -2.117188 21.5625 -2.382812 22.71875 -2.78125 C 23.882812 -3.175781 24.664062 -3.972656 25.0625 -5.171875 C 25.457031 -6.367188 25.65625 -8.160156 25.65625 -10.546875 L 25.65625 -30.9375 L 31.03125 -24.765625 Z M 34.90625 -30.234375 "/></g></g></g></g></g><g fill="#c5a059" fill-opacity="1"><g transform="translate(621.513966, 493.612147)"><g><path d="M 8.109375 0.234375 C 7.285156 0.234375 6.476562 0.128906 5.6875 -0.078125 C 4.90625 -0.285156 4.1875 -0.597656 3.53125 -1.015625 C 2.875 -1.429688 2.332031 -1.945312 1.90625 -2.5625 C 1.488281 -3.1875 1.238281 -3.914062 1.15625 -4.75 L 4.59375 -4.75 C 4.707031 -4.238281 4.925781 -3.8125 5.25 -3.46875 C 5.570312 -3.125 5.976562 -2.859375 6.46875 -2.671875 C 6.957031 -2.492188 7.5 -2.40625 8.09375 -2.40625 C 8.707031 -2.40625 9.265625 -2.476562 9.765625 -2.625 C 10.273438 -2.78125 10.679688 -3.015625 10.984375 -3.328125 C 11.296875 -3.640625 11.453125 -4.03125 11.453125 -4.5 C 11.453125 -4.914062 11.328125 -5.257812 11.078125 -5.53125 C 10.828125 -5.800781 10.488281 -6.019531 10.0625 -6.1875 C 9.644531 -6.351562 9.171875 -6.488281 8.640625 -6.59375 L 5.765625 -7.1875 C 4.503906 -7.425781 3.503906 -7.925781 2.765625 -8.6875 C 2.035156 -9.445312 1.660156 -10.460938 1.640625 -11.734375 C 1.628906 -12.785156 1.90625 -13.691406 2.46875 -14.453125 C 3.03125 -15.210938 3.796875 -15.796875 4.765625 -16.203125 C 5.734375 -16.617188 6.820312 -16.828125 8.03125 -16.828125 C 9.457031 -16.828125 10.660156 -16.601562 11.640625 -16.15625 C 12.617188 -15.707031 13.363281 -15.101562 13.875 -14.34375 C 14.382812 -13.582031 14.644531 -12.734375 14.65625 -11.796875 L 11.296875 -11.796875 C 11.234375 -12.378906 11.054688 -12.84375 10.765625 -13.1875 C 10.472656 -13.53125 10.097656 -13.78125 9.640625 -13.9375 C 9.179688 -14.09375 8.660156 -14.171875 8.078125 -14.171875 C 7.640625 -14.171875 7.238281 -14.117188 6.875 -14.015625 C 6.507812 -13.921875 6.195312 -13.78125 5.9375 -13.59375 C 5.6875 -13.414062 5.492188 -13.203125 5.359375 -12.953125 C 5.222656 -12.710938 5.15625 -12.4375 5.15625 -12.125 C 5.15625 -11.644531 5.316406 -11.253906 5.640625 -10.953125 C 5.960938 -10.660156 6.5625 -10.414062 7.4375 -10.21875 L 10.296875 -9.640625 C 11.316406 -9.441406 12.125 -9.144531 12.71875 -8.75 C 13.320312 -8.363281 13.773438 -7.921875 14.078125 -7.421875 C 14.378906 -6.929688 14.578125 -6.429688 14.671875 -5.921875 C 14.773438 -5.410156 14.828125 -4.941406 14.828125 -4.515625 C 14.828125 -3.617188 14.546875 -2.8125 13.984375 -2.09375 C 13.421875 -1.382812 12.632812 -0.816406 11.625 -0.390625 C 10.625 0.0234375 9.453125 0.234375 8.109375 0.234375 Z M 8.109375 0.234375 "/></g></g></g><g fill="#c5a059" fill-opacity="1"><g transform="translate(637.298137, 493.612147)"><g><path d="M 4.890625 0.234375 C 4.128906 0.234375 3.445312 0.09375 2.84375 -0.1875 C 2.238281 -0.476562 1.757812 -0.894531 1.40625 -1.4375 C 1.050781 -1.976562 0.875 -2.632812 0.875 -3.40625 C 0.875 -4.707031 1.359375 -5.695312 2.328125 -6.375 C 3.304688 -7.050781 4.847656 -7.398438 6.953125 -7.421875 L 8.421875 -7.453125 L 8.421875 -8.171875 C 8.421875 -8.710938 8.257812 -9.128906 7.9375 -9.421875 C 7.625 -9.710938 7.132812 -9.859375 6.46875 -9.859375 C 5.976562 -9.847656 5.515625 -9.726562 5.078125 -9.5 C 4.640625 -9.28125 4.335938 -8.894531 4.171875 -8.34375 L 1.375 -8.34375 C 1.425781 -9.207031 1.675781 -9.914062 2.125 -10.46875 C 2.582031 -11.019531 3.195312 -11.429688 3.96875 -11.703125 C 4.75 -11.984375 5.632812 -12.125 6.625 -12.125 C 7.84375 -12.125 8.816406 -11.972656 9.546875 -11.671875 C 10.285156 -11.367188 10.820312 -10.929688 11.15625 -10.359375 C 11.488281 -9.796875 11.65625 -9.128906 11.65625 -8.359375 L 11.65625 0 L 8.84375 0 L 8.5625 -2.046875 C 8.15625 -1.191406 7.644531 -0.597656 7.03125 -0.265625 C 6.425781 0.0664062 5.710938 0.234375 4.890625 0.234375 Z M 6.015625 -1.984375 C 6.316406 -1.984375 6.613281 -2.035156 6.90625 -2.140625 C 7.195312 -2.253906 7.453125 -2.40625 7.671875 -2.59375 C 7.898438 -2.78125 8.082031 -2.992188 8.21875 -3.234375 C 8.351562 -3.472656 8.421875 -3.71875 8.421875 -3.96875 L 8.421875 -5.734375 L 7.21875 -5.703125 C 6.65625 -5.691406 6.132812 -5.625 5.65625 -5.5 C 5.175781 -5.375 4.785156 -5.171875 4.484375 -4.890625 C 4.191406 -4.609375 4.046875 -4.222656 4.046875 -3.734375 C 4.046875 -3.179688 4.238281 -2.75 4.625 -2.4375 C 5.007812 -2.132812 5.472656 -1.984375 6.015625 -1.984375 Z M 6.015625 -1.984375 "/></g></g></g><g fill="#c5a059" fill-opacity="1"><g transform="translate(650.484191, 493.612147)"><g><path d="M 5.234375 0.203125 C 4.359375 0.203125 3.660156 0.101562 3.140625 -0.09375 C 2.628906 -0.300781 2.25 -0.578125 2 -0.921875 C 1.757812 -1.265625 1.601562 -1.644531 1.53125 -2.0625 C 1.46875 -2.476562 1.4375 -2.898438 1.4375 -3.328125 L 1.4375 -17.09375 L 4.71875 -17.09375 L 4.71875 -3.75 C 4.71875 -3.3125 4.8125 -2.957031 5 -2.6875 C 5.195312 -2.414062 5.554688 -2.25 6.078125 -2.1875 L 6.640625 -2.15625 L 6.640625 -0.078125 C 6.410156 -0.00390625 6.175781 0.0546875 5.9375 0.109375 C 5.695312 0.171875 5.460938 0.203125 5.234375 0.203125 Z M 5.234375 0.203125 "/></g></g></g><g fill="#c5a059" fill-opacity="1"><g transform="translate(657.807196, 493.612147)"><g><path d="M 4.203125 -5.171875 C 4.191406 -4.566406 4.285156 -4.039062 4.484375 -3.59375 C 4.679688 -3.144531 4.96875 -2.800781 5.34375 -2.5625 C 5.726562 -2.320312 6.191406 -2.203125 6.734375 -2.203125 C 7.304688 -2.203125 7.804688 -2.320312 8.234375 -2.5625 C 8.671875 -2.8125 8.972656 -3.210938 9.140625 -3.765625 L 12.171875 -3.765625 C 12.035156 -2.921875 11.695312 -2.203125 11.15625 -1.609375 C 10.613281 -1.015625 9.957031 -0.554688 9.1875 -0.234375 C 8.425781 0.078125 7.632812 0.234375 6.8125 0.234375 C 5.632812 0.234375 4.597656 -0.0078125 3.703125 -0.5 C 2.816406 -1 2.125 -1.703125 1.625 -2.609375 C 1.125 -3.515625 0.875 -4.582031 0.875 -5.8125 C 0.875 -7 1.097656 -8.066406 1.546875 -9.015625 C 2.003906 -9.972656 2.660156 -10.726562 3.515625 -11.28125 C 4.378906 -11.84375 5.421875 -12.125 6.640625 -12.125 C 7.847656 -12.125 8.863281 -11.867188 9.6875 -11.359375 C 10.507812 -10.847656 11.128906 -10.132812 11.546875 -9.21875 C 11.960938 -8.3125 12.171875 -7.265625 12.171875 -6.078125 L 12.171875 -5.171875 Z M 4.1875 -7.171875 L 9.03125 -7.171875 C 9.03125 -7.648438 8.941406 -8.085938 8.765625 -8.484375 C 8.597656 -8.878906 8.332031 -9.191406 7.96875 -9.421875 C 7.613281 -9.660156 7.171875 -9.78125 6.640625 -9.78125 C 6.117188 -9.78125 5.675781 -9.65625 5.3125 -9.40625 C 4.945312 -9.15625 4.664062 -8.828125 4.46875 -8.421875 C 4.28125 -8.023438 4.1875 -7.609375 4.1875 -7.171875 Z M 4.1875 -7.171875 "/></g></g></g><g fill="#c5a059" fill-opacity="1"><g transform="translate(670.843801, 493.612147)"><g><path d="M 6.140625 0.234375 C 5.316406 0.234375 4.519531 0.0976562 3.75 -0.171875 C 2.976562 -0.453125 2.328125 -0.882812 1.796875 -1.46875 C 1.273438 -2.050781 0.941406 -2.8125 0.796875 -3.75 L 3.703125 -3.75 C 3.804688 -3.320312 3.988281 -2.984375 4.25 -2.734375 C 4.507812 -2.492188 4.804688 -2.320312 5.140625 -2.21875 C 5.484375 -2.113281 5.8125 -2.0625 6.125 -2.0625 C 6.757812 -2.0625 7.273438 -2.160156 7.671875 -2.359375 C 8.066406 -2.566406 8.265625 -2.882812 8.265625 -3.3125 C 8.265625 -3.632812 8.144531 -3.890625 7.90625 -4.078125 C 7.675781 -4.273438 7.296875 -4.421875 6.765625 -4.515625 L 4.671875 -4.953125 C 3.617188 -5.179688 2.773438 -5.5625 2.140625 -6.09375 C 1.503906 -6.625 1.175781 -7.378906 1.15625 -8.359375 C 1.15625 -9.078125 1.34375 -9.71875 1.71875 -10.28125 C 2.101562 -10.84375 2.664062 -11.289062 3.40625 -11.625 C 4.15625 -11.957031 5.070312 -12.125 6.15625 -12.125 C 7.613281 -12.125 8.78125 -11.800781 9.65625 -11.15625 C 10.539062 -10.507812 10.988281 -9.597656 11 -8.421875 L 8.203125 -8.421875 C 8.117188 -8.890625 7.890625 -9.242188 7.515625 -9.484375 C 7.140625 -9.734375 6.675781 -9.859375 6.125 -9.859375 C 5.539062 -9.859375 5.054688 -9.753906 4.671875 -9.546875 C 4.296875 -9.347656 4.109375 -9.035156 4.109375 -8.609375 C 4.109375 -8.296875 4.257812 -8.046875 4.5625 -7.859375 C 4.875 -7.679688 5.351562 -7.53125 6 -7.40625 L 7.9375 -6.96875 C 8.601562 -6.8125 9.144531 -6.59375 9.5625 -6.3125 C 9.976562 -6.03125 10.300781 -5.722656 10.53125 -5.390625 C 10.757812 -5.066406 10.914062 -4.738281 11 -4.40625 C 11.09375 -4.070312 11.140625 -3.769531 11.140625 -3.5 C 11.140625 -2.707031 10.925781 -2.03125 10.5 -1.46875 C 10.082031 -0.914062 9.5 -0.492188 8.75 -0.203125 C 8 0.0859375 7.128906 0.234375 6.140625 0.234375 Z M 6.140625 0.234375 "/></g></g></g><g fill="#c5a059" fill-opacity="1"><g transform="translate(682.730779, 493.612147)"><g/></g></g><g fill="#c5a059" fill-opacity="1"><g transform="translate(687.605138, 493.612147)"><g><path d="M 4.3125 3.703125 L 1.859375 3.703125 L 1.859375 -19 L 4.3125 -19 Z M 4.3125 3.703125 "/></g></g></g><g fill="#c5a059" fill-opacity="1"><g transform="translate(693.778561, 493.612147)"><g/></g></g><g fill="#c5a059" fill-opacity="1"><g transform="translate(698.65292, 493.612147)"><g><path d="M 14.765625 0 L 11.28125 0 L 8.578125 -6.40625 L 5.203125 -6.40625 L 5.203125 0 L 1.859375 0 L 1.859375 -16.625 L 8.875 -16.625 C 10.207031 -16.625 11.289062 -16.410156 12.125 -15.984375 C 12.96875 -15.566406 13.585938 -14.984375 13.984375 -14.234375 C 14.390625 -13.492188 14.59375 -12.632812 14.59375 -11.65625 C 14.59375 -10.78125 14.457031 -10.039062 14.1875 -9.4375 C 13.914062 -8.84375 13.554688 -8.34375 13.109375 -7.9375 C 12.671875 -7.539062 12.191406 -7.21875 11.671875 -6.96875 Z M 8.28125 -9 C 9.175781 -9 9.882812 -9.238281 10.40625 -9.71875 C 10.9375 -10.195312 11.203125 -10.816406 11.203125 -11.578125 C 11.203125 -12.347656 10.945312 -12.953125 10.4375 -13.390625 C 9.9375 -13.835938 9.296875 -14.0625 8.515625 -14.0625 L 5.203125 -14.0625 L 5.203125 -9 Z M 8.28125 -9 "/></g></g></g><g fill="#c5a059" fill-opacity="1"><g transform="translate(714.230113, 493.612147)"><g><path d="M 4.203125 -5.171875 C 4.191406 -4.566406 4.285156 -4.039062 4.484375 -3.59375 C 4.679688 -3.144531 4.96875 -2.800781 5.34375 -2.5625 C 5.726562 -2.320312 6.191406 -2.203125 6.734375 -2.203125 C 7.304688 -2.203125 7.804688 -2.320312 8.234375 -2.5625 C 8.671875 -2.8125 8.972656 -3.210938 9.140625 -3.765625 L 12.171875 -3.765625 C 12.035156 -2.921875 11.695312 -2.203125 11.15625 -1.609375 C 10.613281 -1.015625 9.957031 -0.554688 9.1875 -0.234375 C 8.425781 0.078125 7.632812 0.234375 6.8125 0.234375 C 5.632812 0.234375 4.597656 -0.0078125 3.703125 -0.5 C 2.816406 -1 2.125 -1.703125 1.625 -2.609375 C 1.125 -3.515625 0.875 -4.582031 0.875 -5.8125 C 0.875 -7 1.097656 -8.066406 1.546875 -9.015625 C 2.003906 -9.972656 2.660156 -10.726562 3.515625 -11.28125 C 4.378906 -11.84375 5.421875 -12.125 6.640625 -12.125 C 7.847656 -12.125 8.863281 -11.867188 9.6875 -11.359375 C 10.507812 -10.847656 11.128906 -10.132812 11.546875 -9.21875 C 11.960938 -8.3125 12.171875 -7.265625 12.171875 -6.078125 L 12.171875 -5.171875 Z M 4.1875 -7.171875 L 9.03125 -7.171875 C 9.03125 -7.648438 8.941406 -8.085938 8.765625 -8.484375 C 8.597656 -8.878906 8.332031 -9.191406 7.96875 -9.421875 C 7.613281 -9.660156 7.171875 -9.78125 6.640625 -9.78125 C 6.117188 -9.78125 5.675781 -9.65625 5.3125 -9.40625 C 4.945312 -9.15625 4.664062 -8.828125 4.46875 -8.421875 C 4.28125 -8.023438 4.1875 -7.609375 4.1875 -7.171875 Z M 4.1875 -7.171875 "/></g></g></g><g fill="#c5a059" fill-opacity="1"><g transform="translate(727.301211, 493.612147)"><g><path d="M 1.4375 0 L 1.4375 -11.890625 L 4.734375 -11.890625 L 4.734375 -10.21875 C 4.921875 -10.507812 5.160156 -10.789062 5.453125 -11.0625 C 5.753906 -11.332031 6.128906 -11.554688 6.578125 -11.734375 C 7.023438 -11.910156 7.5625 -12 8.1875 -12 C 8.914062 -12 9.59375 -11.851562 10.21875 -11.5625 C 10.851562 -11.28125 11.363281 -10.832031 11.75 -10.21875 C 12.144531 -9.613281 12.34375 -8.820312 12.34375 -7.84375 L 12.34375 0 L 9 0 L 9 -7.421875 C 9 -8.066406 8.804688 -8.550781 8.421875 -8.875 C 8.035156 -9.195312 7.566406 -9.359375 7.015625 -9.359375 C 6.648438 -9.359375 6.296875 -9.289062 5.953125 -9.15625 C 5.609375 -9.03125 5.328125 -8.835938 5.109375 -8.578125 C 4.898438 -8.316406 4.796875 -7.992188 4.796875 -7.609375 L 4.796875 0 Z M 1.4375 0 "/></g></g></g><g fill="#c5a059" fill-opacity="1"><g transform="translate(740.406733, 493.612147)"><g><path d="M 8.6875 -9.5625 L 6.03125 -9.5625 L 6.0625 -3.21875 C 6.0625 -2.925781 6.097656 -2.707031 6.171875 -2.5625 C 6.242188 -2.425781 6.359375 -2.335938 6.515625 -2.296875 C 6.671875 -2.253906 6.875 -2.234375 7.125 -2.234375 L 8.71875 -2.234375 L 8.71875 -0.15625 C 8.5625 -0.09375 8.320312 -0.03125 8 0.03125 C 7.675781 0.09375 7.222656 0.125 6.640625 0.125 C 5.597656 0.125 4.789062 -0.00390625 4.21875 -0.265625 C 3.644531 -0.535156 3.242188 -0.910156 3.015625 -1.390625 C 2.796875 -1.878906 2.6875 -2.441406 2.6875 -3.078125 L 2.6875 -9.5625 L 0.765625 -9.5625 L 0.765625 -11.890625 L 2.8125 -11.890625 L 3.640625 -15.484375 L 6.03125 -15.484375 L 6.03125 -11.90625 L 8.6875 -11.90625 Z M 8.6875 -9.5625 "/></g></g></g><g fill="#c5a059" fill-opacity="1"><g transform="translate(750.086466, 493.612147)"><g><path d="M 4.890625 0.234375 C 4.128906 0.234375 3.445312 0.09375 2.84375 -0.1875 C 2.238281 -0.476562 1.757812 -0.894531 1.40625 -1.4375 C 1.050781 -1.976562 0.875 -2.632812 0.875 -3.40625 C 0.875 -4.707031 1.359375 -5.695312 2.328125 -6.375 C 3.304688 -7.050781 4.847656 -7.398438 6.953125 -7.421875 L 8.421875 -7.453125 L 8.421875 -8.171875 C 8.421875 -8.710938 8.257812 -9.128906 7.9375 -9.421875 C 7.625 -9.710938 7.132812 -9.859375 6.46875 -9.859375 C 5.976562 -9.847656 5.515625 -9.726562 5.078125 -9.5 C 4.640625 -9.28125 4.335938 -8.894531 4.171875 -8.34375 L 1.375 -8.34375 C 1.425781 -9.207031 1.675781 -9.914062 2.125 -10.46875 C 2.582031 -11.019531 3.195312 -11.429688 3.96875 -11.703125 C 4.75 -11.984375 5.632812 -12.125 6.625 -12.125 C 7.84375 -12.125 8.816406 -11.972656 9.546875 -11.671875 C 10.285156 -11.367188 10.820312 -10.929688 11.15625 -10.359375 C 11.488281 -9.796875 11.65625 -9.128906 11.65625 -8.359375 L 11.65625 0 L 8.84375 0 L 8.5625 -2.046875 C 8.15625 -1.191406 7.644531 -0.597656 7.03125 -0.265625 C 6.425781 0.0664062 5.710938 0.234375 4.890625 0.234375 Z M 6.015625 -1.984375 C 6.316406 -1.984375 6.613281 -2.035156 6.90625 -2.140625 C 7.195312 -2.253906 7.453125 -2.40625 7.671875 -2.59375 C 7.898438 -2.78125 8.082031 -2.992188 8.21875 -3.234375 C 8.351562 -3.472656 8.421875 -3.71875 8.421875 -3.96875 L 8.421875 -5.734375 L 7.21875 -5.703125 C 6.65625 -5.691406 6.132812 -5.625 5.65625 -5.5 C 5.175781 -5.375 4.785156 -5.171875 4.484375 -4.890625 C 4.191406 -4.609375 4.046875 -4.222656 4.046875 -3.734375 C 4.046875 -3.179688 4.238281 -2.75 4.625 -2.4375 C 5.007812 -2.132812 5.472656 -1.984375 6.015625 -1.984375 Z M 6.015625 -1.984375 "/></g></g></g><g fill="#c5a059" fill-opacity="1"><g transform="translate(763.272519, 493.612147)"><g><path d="M 5.234375 0.203125 C 4.359375 0.203125 3.660156 0.101562 3.140625 -0.09375 C 2.628906 -0.300781 2.25 -0.578125 2 -0.921875 C 1.757812 -1.265625 1.601562 -1.644531 1.53125 -2.0625 C 1.46875 -2.476562 1.4375 -2.898438 1.4375 -3.328125 L 1.4375 -17.09375 L 4.71875 -17.09375 L 4.71875 -3.75 C 4.71875 -3.3125 4.8125 -2.957031 5 -2.6875 C 5.195312 -2.414062 5.554688 -2.25 6.078125 -2.1875 L 6.640625 -2.15625 L 6.640625 -0.078125 C 6.410156 -0.00390625 6.175781 0.0546875 5.9375 0.109375 C 5.695312 0.171875 5.460938 0.203125 5.234375 0.203125 Z M 5.234375 0.203125 "/></g></g></g><g fill="#c5a059" fill-opacity="1"><g transform="translate(770.52654, 493.612147)"><g><path d="M 6.140625 0.234375 C 5.316406 0.234375 4.519531 0.0976562 3.75 -0.171875 C 2.976562 -0.453125 2.328125 -0.882812 1.796875 -1.46875 C 1.273438 -2.050781 0.941406 -2.8125 0.796875 -3.75 L 3.703125 -3.75 C 3.804688 -3.320312 3.988281 -2.984375 4.25 -2.734375 C 4.507812 -2.492188 4.804688 -2.320312 5.140625 -2.21875 C 5.484375 -2.113281 5.8125 -2.0625 6.125 -2.0625 C 6.757812 -2.0625 7.273438 -2.160156 7.671875 -2.359375 C 8.066406 -2.566406 8.265625 -2.882812 8.265625 -3.3125 C 8.265625 -3.632812 8.144531 -3.890625 7.90625 -4.078125 C 7.675781 -4.273438 7.296875 -4.421875 6.765625 -4.515625 L 4.671875 -4.953125 C 3.617188 -5.179688 2.773438 -5.5625 2.140625 -6.09375 C 1.503906 -6.625 1.175781 -7.378906 1.15625 -8.359375 C 1.15625 -9.078125 1.34375 -9.71875 1.71875 -10.28125 C 2.101562 -10.84375 2.664062 -11.289062 3.40625 -11.625 C 4.15625 -11.957031 5.070312 -12.125 6.15625 -12.125 C 7.613281 -12.125 8.78125 -11.800781 9.65625 -11.15625 C 10.539062 -10.507812 10.988281 -9.597656 11 -8.421875 L 8.203125 -8.421875 C 8.117188 -8.890625 7.890625 -9.242188 7.515625 -9.484375 C 7.140625 -9.734375 6.675781 -9.859375 6.125 -9.859375 C 5.539062 -9.859375 5.054688 -9.753906 4.671875 -9.546875 C 4.296875 -9.347656 4.109375 -9.035156 4.109375 -8.609375 C 4.109375 -8.296875 4.257812 -8.046875 4.5625 -7.859375 C 4.875 -7.679688 5.351562 -7.53125 6 -7.40625 L 7.9375 -6.96875 C 8.601562 -6.8125 9.144531 -6.59375 9.5625 -6.3125 C 9.976562 -6.03125 10.300781 -5.722656 10.53125 -5.390625 C 10.757812 -5.066406 10.914062 -4.738281 11 -4.40625 C 11.09375 -4.070312 11.140625 -3.769531 11.140625 -3.5 C 11.140625 -2.707031 10.925781 -2.03125 10.5 -1.46875 C 10.082031 -0.914062 9.5 -0.492188 8.75 -0.203125 C 8 0.0859375 7.128906 0.234375 6.140625 0.234375 Z M 6.140625 0.234375 "/></g></g></g><g fill="#c5a059" fill-opacity="1"><g transform="translate(782.413517, 493.612147)"><g/></g></g><g fill="#c5a059" fill-opacity="1"><g transform="translate(787.287876, 493.612147)"><g><path d="M 4.3125 3.703125 L 1.859375 3.703125 L 1.859375 -19 L 4.3125 -19 Z M 4.3125 3.703125 "/></g></g></g><g fill="#c5a059" fill-opacity="1"><g transform="translate(793.4613, 493.612147)"><g/></g></g><g fill="#c5a059" fill-opacity="1"><g transform="translate(798.335659, 493.612147)"><g><path d="M 8.640625 -16.859375 C 9.890625 -16.859375 11 -16.609375 11.96875 -16.109375 C 12.945312 -15.609375 13.738281 -14.921875 14.34375 -14.046875 C 14.945312 -13.179688 15.300781 -12.207031 15.40625 -11.125 L 11.890625 -11.125 C 11.785156 -11.695312 11.585938 -12.207031 11.296875 -12.65625 C 11.015625 -13.101562 10.644531 -13.453125 10.1875 -13.703125 C 9.726562 -13.960938 9.175781 -14.09375 8.53125 -14.09375 C 7.757812 -14.09375 7.09375 -13.90625 6.53125 -13.53125 C 5.96875 -13.15625 5.535156 -12.550781 5.234375 -11.71875 C 4.941406 -10.882812 4.796875 -9.78125 4.796875 -8.40625 C 4.796875 -6.332031 5.125 -4.832031 5.78125 -3.90625 C 6.445312 -2.988281 7.363281 -2.53125 8.53125 -2.53125 C 9.175781 -2.53125 9.726562 -2.675781 10.1875 -2.96875 C 10.644531 -3.269531 11.015625 -3.660156 11.296875 -4.140625 C 11.585938 -4.628906 11.785156 -5.164062 11.890625 -5.75 L 15.40625 -5.75 C 15.3125 -4.957031 15.117188 -4.203125 14.828125 -3.484375 C 14.546875 -2.773438 14.144531 -2.140625 13.625 -1.578125 C 13.101562 -1.015625 12.429688 -0.570312 11.609375 -0.25 C 10.796875 0.0703125 9.804688 0.234375 8.640625 0.234375 C 7.085938 0.234375 5.75 -0.125 4.625 -0.84375 C 3.5 -1.570312 2.628906 -2.585938 2.015625 -3.890625 C 1.410156 -5.191406 1.109375 -6.710938 1.109375 -8.453125 C 1.109375 -10.203125 1.410156 -11.703125 2.015625 -12.953125 C 2.617188 -14.203125 3.484375 -15.164062 4.609375 -15.84375 C 5.734375 -16.519531 7.078125 -16.859375 8.640625 -16.859375 Z M 8.640625 -16.859375 "/></g></g></g><g fill="#c5a059" fill-opacity="1"><g transform="translate(814.890086, 493.612147)"><g><path d="M 6.546875 0.234375 C 5.378906 0.234375 4.363281 -0.015625 3.5 -0.515625 C 2.632812 -1.015625 1.96875 -1.71875 1.5 -2.625 C 1.03125 -3.539062 0.796875 -4.625 0.796875 -5.875 C 0.796875 -7.125 1.03125 -8.21875 1.5 -9.15625 C 1.96875 -10.09375 2.632812 -10.820312 3.5 -11.34375 C 4.363281 -11.863281 5.382812 -12.125 6.5625 -12.125 C 7.726562 -12.125 8.738281 -11.867188 9.59375 -11.359375 C 10.457031 -10.847656 11.125 -10.125 11.59375 -9.1875 C 12.0625 -8.25 12.296875 -7.144531 12.296875 -5.875 C 12.296875 -4.675781 12.066406 -3.617188 11.609375 -2.703125 C 11.148438 -1.785156 10.492188 -1.066406 9.640625 -0.546875 C 8.785156 -0.0234375 7.753906 0.234375 6.546875 0.234375 Z M 6.5625 -2.265625 C 7.144531 -2.265625 7.613281 -2.4375 7.96875 -2.78125 C 8.332031 -3.125 8.597656 -3.578125 8.765625 -4.140625 C 8.929688 -4.703125 9.015625 -5.316406 9.015625 -5.984375 C 9.015625 -6.617188 8.9375 -7.210938 8.78125 -7.765625 C 8.632812 -8.328125 8.378906 -8.78125 8.015625 -9.125 C 7.660156 -9.46875 7.175781 -9.640625 6.5625 -9.640625 C 5.96875 -9.640625 5.488281 -9.476562 5.125 -9.15625 C 4.757812 -8.832031 4.492188 -8.390625 4.328125 -7.828125 C 4.160156 -7.273438 4.078125 -6.660156 4.078125 -5.984375 C 4.078125 -5.367188 4.148438 -4.773438 4.296875 -4.203125 C 4.453125 -3.628906 4.707031 -3.160156 5.0625 -2.796875 C 5.425781 -2.441406 5.925781 -2.265625 6.5625 -2.265625 Z M 6.5625 -2.265625 "/></g></g></g><g fill="#c5a059" fill-opacity="1"><g transform="translate(827.972674, 493.612147)"><g><path d="M 1.4375 0 L 1.4375 -11.890625 L 4.734375 -11.890625 L 4.734375 -10.21875 C 4.921875 -10.507812 5.160156 -10.789062 5.453125 -11.0625 C 5.753906 -11.332031 6.128906 -11.554688 6.578125 -11.734375 C 7.023438 -11.910156 7.5625 -12 8.1875 -12 C 8.914062 -12 9.59375 -11.851562 10.21875 -11.5625 C 10.851562 -11.28125 11.363281 -10.832031 11.75 -10.21875 C 12.144531 -9.613281 12.34375 -8.820312 12.34375 -7.84375 L 12.34375 0 L 9 0 L 9 -7.421875 C 9 -8.066406 8.804688 -8.550781 8.421875 -8.875 C 8.035156 -9.195312 7.566406 -9.359375 7.015625 -9.359375 C 6.648438 -9.359375 6.296875 -9.289062 5.953125 -9.15625 C 5.609375 -9.03125 5.328125 -8.835938 5.109375 -8.578125 C 4.898438 -8.316406 4.796875 -7.992188 4.796875 -7.609375 L 4.796875 0 Z M 1.4375 0 "/></g></g></g><g fill="#c5a059" fill-opacity="1"><g transform="translate(841.457612, 493.612147)"><g><path d="M 6.140625 0.234375 C 5.316406 0.234375 4.519531 0.0976562 3.75 -0.171875 C 2.976562 -0.453125 2.328125 -0.882812 1.796875 -1.46875 C 1.273438 -2.050781 0.941406 -2.8125 0.796875 -3.75 L 3.703125 -3.75 C 3.804688 -3.320312 3.988281 -2.984375 4.25 -2.734375 C 4.507812 -2.492188 4.804688 -2.320312 5.140625 -2.21875 C 5.484375 -2.113281 5.8125 -2.0625 6.125 -2.0625 C 6.757812 -2.0625 7.273438 -2.160156 7.671875 -2.359375 C 8.066406 -2.566406 8.265625 -2.882812 8.265625 -3.3125 C 8.265625 -3.632812 8.144531 -3.890625 7.90625 -4.078125 C 7.675781 -4.273438 7.296875 -4.421875 6.765625 -4.515625 L 4.671875 -4.953125 C 3.617188 -5.179688 2.773438 -5.5625 2.140625 -6.09375 C 1.503906 -6.625 1.175781 -7.378906 1.15625 -8.359375 C 1.15625 -9.078125 1.34375 -9.71875 1.71875 -10.28125 C 2.101562 -10.84375 2.664062 -11.289062 3.40625 -11.625 C 4.15625 -11.957031 5.070312 -12.125 6.15625 -12.125 C 7.613281 -12.125 8.78125 -11.800781 9.65625 -11.15625 C 10.539062 -10.507812 10.988281 -9.597656 11 -8.421875 L 8.203125 -8.421875 C 8.117188 -8.890625 7.890625 -9.242188 7.515625 -9.484375 C 7.140625 -9.734375 6.675781 -9.859375 6.125 -9.859375 C 5.539062 -9.859375 5.054688 -9.753906 4.671875 -9.546875 C 4.296875 -9.347656 4.109375 -9.035156 4.109375 -8.609375 C 4.109375 -8.296875 4.257812 -8.046875 4.5625 -7.859375 C 4.875 -7.679688 5.351562 -7.53125 6 -7.40625 L 7.9375 -6.96875 C 8.601562 -6.8125 9.144531 -6.59375 9.5625 -6.3125 C 9.976562 -6.03125 10.300781 -5.722656 10.53125 -5.390625 C 10.757812 -5.066406 10.914062 -4.738281 11 -4.40625 C 11.09375 -4.070312 11.140625 -3.769531 11.140625 -3.5 C 11.140625 -2.707031 10.925781 -2.03125 10.5 -1.46875 C 10.082031 -0.914062 9.5 -0.492188 8.75 -0.203125 C 8 0.0859375 7.128906 0.234375 6.140625 0.234375 Z M 6.140625 0.234375 "/></g></g></g><g fill="#c5a059" fill-opacity="1"><g transform="translate(853.367592, 493.612147)"><g><path d="M 8.6875 -9.5625 L 6.03125 -9.5625 L 6.0625 -3.21875 C 6.0625 -2.925781 6.097656 -2.707031 6.171875 -2.5625 C 6.242188 -2.425781 6.359375 -2.335938 6.515625 -2.296875 C 6.671875 -2.253906 6.875 -2.234375 7.125 -2.234375 L 8.71875 -2.234375 L 8.71875 -0.15625 C 8.5625 -0.09375 8.320312 -0.03125 8 0.03125 C 7.675781 0.09375 7.222656 0.125 6.640625 0.125 C 5.597656 0.125 4.789062 -0.00390625 4.21875 -0.265625 C 3.644531 -0.535156 3.242188 -0.910156 3.015625 -1.390625 C 2.796875 -1.878906 2.6875 -2.441406 2.6875 -3.078125 L 2.6875 -9.5625 L 0.765625 -9.5625 L 0.765625 -11.890625 L 2.8125 -11.890625 L 3.640625 -15.484375 L 6.03125 -15.484375 L 6.03125 -11.90625 L 8.6875 -11.90625 Z M 8.6875 -9.5625 "/></g></g></g><g fill="#c5a059" fill-opacity="1"><g transform="translate(863.081795, 493.612147)"><g><path d="M 1.4375 0 L 1.4375 -11.890625 L 4.671875 -11.890625 L 4.671875 -9.078125 C 4.859375 -9.679688 5.125 -10.207031 5.46875 -10.65625 C 5.820312 -11.113281 6.25 -11.472656 6.75 -11.734375 C 7.25 -11.992188 7.8125 -12.125 8.4375 -12.125 C 8.550781 -12.125 8.65625 -12.117188 8.75 -12.109375 C 8.84375 -12.097656 8.910156 -12.078125 8.953125 -12.046875 L 8.953125 -8.859375 C 8.890625 -8.890625 8.804688 -8.90625 8.703125 -8.90625 C 8.609375 -8.914062 8.523438 -8.925781 8.453125 -8.9375 C 7.796875 -8.988281 7.234375 -8.96875 6.765625 -8.875 C 6.296875 -8.78125 5.914062 -8.625 5.625 -8.40625 C 5.332031 -8.1875 5.117188 -7.914062 4.984375 -7.59375 C 4.859375 -7.269531 4.796875 -6.910156 4.796875 -6.515625 L 4.796875 0 Z M 1.4375 0 "/></g></g></g><g fill="#c5a059" fill-opacity="1"><g transform="translate(872.428161, 493.612147)"><g><path d="M 5.8125 0.234375 C 5.257812 0.234375 4.71875 0.148438 4.1875 -0.015625 C 3.65625 -0.191406 3.171875 -0.441406 2.734375 -0.765625 C 2.296875 -1.097656 1.941406 -1.503906 1.671875 -1.984375 C 1.410156 -2.472656 1.28125 -3.035156 1.28125 -3.671875 L 1.28125 -11.890625 L 4.640625 -11.890625 L 4.640625 -4.09375 C 4.640625 -3.539062 4.820312 -3.085938 5.1875 -2.734375 C 5.550781 -2.378906 6.078125 -2.203125 6.765625 -2.203125 C 7.429688 -2.203125 7.957031 -2.375 8.34375 -2.71875 C 8.726562 -3.0625 8.921875 -3.539062 8.921875 -4.15625 L 8.921875 -11.890625 L 12.25 -11.890625 L 12.25 0 L 9.71875 0 L 9.328125 -2.359375 C 9.191406 -1.660156 8.929688 -1.125 8.546875 -0.75 C 8.171875 -0.382812 7.738281 -0.128906 7.25 0.015625 C 6.757812 0.160156 6.28125 0.234375 5.8125 0.234375 Z M 5.8125 0.234375 "/></g></g></g><g fill="#c5a059" fill-opacity="1"><g transform="translate(885.959105, 493.612147)"><g><path d="M 6.53125 -12.125 C 7.53125 -12.125 8.390625 -11.921875 9.109375 -11.515625 C 9.835938 -11.109375 10.410156 -10.554688 10.828125 -9.859375 C 11.242188 -9.171875 11.484375 -8.40625 11.546875 -7.5625 L 8.75 -7.5625 C 8.695312 -7.875 8.585938 -8.179688 8.421875 -8.484375 C 8.253906 -8.796875 8.015625 -9.050781 7.703125 -9.25 C 7.398438 -9.457031 7.019531 -9.5625 6.5625 -9.5625 C 5.769531 -9.5625 5.128906 -9.257812 4.640625 -8.65625 C 4.160156 -8.0625 3.921875 -7.148438 3.921875 -5.921875 C 3.921875 -4.765625 4.15625 -3.847656 4.625 -3.171875 C 5.101562 -2.492188 5.769531 -2.15625 6.625 -2.15625 C 7.070312 -2.15625 7.445312 -2.265625 7.75 -2.484375 C 8.050781 -2.703125 8.285156 -2.96875 8.453125 -3.28125 C 8.628906 -3.59375 8.738281 -3.882812 8.78125 -4.15625 L 11.515625 -4.15625 C 11.460938 -3.332031 11.222656 -2.585938 10.796875 -1.921875 C 10.378906 -1.265625 9.804688 -0.738281 9.078125 -0.34375 C 8.359375 0.0390625 7.507812 0.234375 6.53125 0.234375 C 5.425781 0.234375 4.441406 -0.0078125 3.578125 -0.5 C 2.710938 -0.988281 2.03125 -1.691406 1.53125 -2.609375 C 1.039062 -3.523438 0.796875 -4.625 0.796875 -5.90625 C 0.796875 -7.125 1.03125 -8.203125 1.5 -9.140625 C 1.976562 -10.078125 2.648438 -10.804688 3.515625 -11.328125 C 4.378906 -11.859375 5.382812 -12.125 6.53125 -12.125 Z M 6.53125 -12.125 "/></g></g></g><g fill="#c5a059" fill-opacity="1"><g transform="translate(898.00701, 493.612147)"><g><path d="M 8.6875 -9.5625 L 6.03125 -9.5625 L 6.0625 -3.21875 C 6.0625 -2.925781 6.097656 -2.707031 6.171875 -2.5625 C 6.242188 -2.425781 6.359375 -2.335938 6.515625 -2.296875 C 6.671875 -2.253906 6.875 -2.234375 7.125 -2.234375 L 8.71875 -2.234375 L 8.71875 -0.15625 C 8.5625 -0.09375 8.320312 -0.03125 8 0.03125 C 7.675781 0.09375 7.222656 0.125 6.640625 0.125 C 5.597656 0.125 4.789062 -0.00390625 4.21875 -0.265625 C 3.644531 -0.535156 3.242188 -0.910156 3.015625 -1.390625 C 2.796875 -1.878906 2.6875 -2.441406 2.6875 -3.078125 L 2.6875 -9.5625 L 0.765625 -9.5625 L 0.765625 -11.890625 L 2.8125 -11.890625 L 3.640625 -15.484375 L 6.03125 -15.484375 L 6.03125 -11.90625 L 8.6875 -11.90625 Z M 8.6875 -9.5625 "/></g></g></g><g fill="#c5a059" fill-opacity="1"><g transform="translate(907.721235, 493.612147)"><g><path d="M 4.8125 -11.890625 L 4.8125 0 L 1.609375 0 L 1.609375 -11.890625 Z M 4.859375 -16.625 L 4.859375 -13.59375 L 1.59375 -13.59375 L 1.59375 -16.625 Z M 4.859375 -16.625 "/></g></g></g><g fill="#c5a059" fill-opacity="1"><g transform="translate(914.147573, 493.612147)"><g><path d="M 6.546875 0.234375 C 5.378906 0.234375 4.363281 -0.015625 3.5 -0.515625 C 2.632812 -1.015625 1.96875 -1.71875 1.5 -2.625 C 1.03125 -3.539062 0.796875 -4.625 0.796875 -5.875 C 0.796875 -7.125 1.03125 -8.21875 1.5 -9.15625 C 1.96875 -10.09375 2.632812 -10.820312 3.5 -11.34375 C 4.363281 -11.863281 5.382812 -12.125 6.5625 -12.125 C 7.726562 -12.125 8.738281 -11.867188 9.59375 -11.359375 C 10.457031 -10.847656 11.125 -10.125 11.59375 -9.1875 C 12.0625 -8.25 12.296875 -7.144531 12.296875 -5.875 C 12.296875 -4.675781 12.066406 -3.617188 11.609375 -2.703125 C 11.148438 -1.785156 10.492188 -1.066406 9.640625 -0.546875 C 8.785156 -0.0234375 7.753906 0.234375 6.546875 0.234375 Z M 6.5625 -2.265625 C 7.144531 -2.265625 7.613281 -2.4375 7.96875 -2.78125 C 8.332031 -3.125 8.597656 -3.578125 8.765625 -4.140625 C 8.929688 -4.703125 9.015625 -5.316406 9.015625 -5.984375 C 9.015625 -6.617188 8.9375 -7.210938 8.78125 -7.765625 C 8.632812 -8.328125 8.378906 -8.78125 8.015625 -9.125 C 7.660156 -9.46875 7.175781 -9.640625 6.5625 -9.640625 C 5.96875 -9.640625 5.488281 -9.476562 5.125 -9.15625 C 4.757812 -8.832031 4.492188 -8.390625 4.328125 -7.828125 C 4.160156 -7.273438 4.078125 -6.660156 4.078125 -5.984375 C 4.078125 -5.367188 4.148438 -4.773438 4.296875 -4.203125 C 4.453125 -3.628906 4.707031 -3.160156 5.0625 -2.796875 C 5.425781 -2.441406 5.925781 -2.265625 6.5625 -2.265625 Z M 6.5625 -2.265625 "/></g></g></g><g fill="#c5a059" fill-opacity="1"><g transform="translate(927.230161, 493.612147)"><g><path d="M 1.4375 0 L 1.4375 -11.890625 L 4.734375 -11.890625 L 4.734375 -10.21875 C 4.921875 -10.507812 5.160156 -10.789062 5.453125 -11.0625 C 5.753906 -11.332031 6.128906 -11.554688 6.578125 -11.734375 C 7.023438 -11.910156 7.5625 -12 8.1875 -12 C 8.914062 -12 9.59375 -11.851562 10.21875 -11.5625 C 10.851562 -11.28125 11.363281 -10.832031 11.75 -10.21875 C 12.144531 -9.613281 12.34375 -8.820312 12.34375 -7.84375 L 12.34375 0 L 9 0 L 9 -7.421875 C 9 -8.066406 8.804688 -8.550781 8.421875 -8.875 C 8.035156 -9.195312 7.566406 -9.359375 7.015625 -9.359375 C 6.648438 -9.359375 6.296875 -9.289062 5.953125 -9.15625 C 5.609375 -9.03125 5.328125 -8.835938 5.109375 -8.578125 C 4.898438 -8.316406 4.796875 -7.992188 4.796875 -7.609375 L 4.796875 0 Z M 1.4375 0 "/></g></g></g><g fill="#c5a059" fill-opacity="1"><g transform="translate(940.715099, 493.612147)"><g><path d="M 6.140625 0.234375 C 5.316406 0.234375 4.519531 0.0976562 3.75 -0.171875 C 2.976562 -0.453125 2.328125 -0.882812 1.796875 -1.46875 C 1.273438 -2.050781 0.941406 -2.8125 0.796875 -3.75 L 3.703125 -3.75 C 3.804688 -3.320312 3.988281 -2.984375 4.25 -2.734375 C 4.507812 -2.492188 4.804688 -2.320312 5.140625 -2.21875 C 5.484375 -2.113281 5.8125 -2.0625 6.125 -2.0625 C 6.757812 -2.0625 7.273438 -2.160156 7.671875 -2.359375 C 8.066406 -2.566406 8.265625 -2.882812 8.265625 -3.3125 C 8.265625 -3.632812 8.144531 -3.890625 7.90625 -4.078125 C 7.675781 -4.273438 7.296875 -4.421875 6.765625 -4.515625 L 4.671875 -4.953125 C 3.617188 -5.179688 2.773438 -5.5625 2.140625 -6.09375 C 1.503906 -6.625 1.175781 -7.378906 1.15625 -8.359375 C 1.15625 -9.078125 1.34375 -9.71875 1.71875 -10.28125 C 2.101562 -10.84375 2.664062 -11.289062 3.40625 -11.625 C 4.15625 -11.957031 5.070312 -12.125 6.15625 -12.125 C 7.613281 -12.125 8.78125 -11.800781 9.65625 -11.15625 C 10.539062 -10.507812 10.988281 -9.597656 11 -8.421875 L 8.203125 -8.421875 C 8.117188 -8.890625 7.890625 -9.242188 7.515625 -9.484375 C 7.140625 -9.734375 6.675781 -9.859375 6.125 -9.859375 C 5.539062 -9.859375 5.054688 -9.753906 4.671875 -9.546875 C 4.296875 -9.347656 4.109375 -9.035156 4.109375 -8.609375 C 4.109375 -8.296875 4.257812 -8.046875 4.5625 -7.859375 C 4.875 -7.679688 5.351562 -7.53125 6 -7.40625 L 7.9375 -6.96875 C 8.601562 -6.8125 9.144531 -6.59375 9.5625 -6.3125 C 9.976562 -6.03125 10.300781 -5.722656 10.53125 -5.390625 C 10.757812 -5.066406 10.914062 -4.738281 11 -4.40625 C 11.09375 -4.070312 11.140625 -3.769531 11.140625 -3.5 C 11.140625 -2.707031 10.925781 -2.03125 10.5 -1.46875 C 10.082031 -0.914062 9.5 -0.492188 8.75 -0.203125 C 8 0.0859375 7.128906 0.234375 6.140625 0.234375 Z M 6.140625 0.234375 "/></g></g></g><g fill="#c5a059" fill-opacity="1"><g transform="translate(952.602077, 493.612147)"><g/></g></g><g fill="#c5a059" fill-opacity="1"><g transform="translate(957.476436, 493.612147)"><g><path d="M 4.3125 3.703125 L 1.859375 3.703125 L 1.859375 -19 L 4.3125 -19 Z M 4.3125 3.703125 "/></g></g></g><g fill="#c5a059" fill-opacity="1"><g transform="translate(963.649859, 493.612147)"><g/></g></g><g fill="#c5a059" fill-opacity="1"><g transform="translate(968.524218, 493.612147)"><g><path d="M 1.859375 -16.625 C 1.941406 -16.625 2.175781 -16.625 2.5625 -16.625 C 2.957031 -16.625 3.414062 -16.625 3.9375 -16.625 C 4.457031 -16.625 4.976562 -16.625 5.5 -16.625 C 6.03125 -16.625 6.472656 -16.617188 6.828125 -16.609375 C 8.847656 -16.554688 10.492188 -16.191406 11.765625 -15.515625 C 13.035156 -14.847656 13.96875 -13.90625 14.5625 -12.6875 C 15.15625 -11.476562 15.453125 -10.046875 15.453125 -8.390625 C 15.453125 -6.671875 15.132812 -5.179688 14.5 -3.921875 C 13.875 -2.671875 12.914062 -1.703125 11.625 -1.015625 C 10.332031 -0.335938 8.695312 0 6.71875 0 L 1.859375 0 Z M 5.25 -13.921875 L 5.25 -2.71875 L 6.78125 -2.71875 C 7.726562 -2.71875 8.59375 -2.898438 9.375 -3.265625 C 10.15625 -3.628906 10.78125 -4.226562 11.25 -5.0625 C 11.71875 -5.90625 11.953125 -7.023438 11.953125 -8.421875 C 11.953125 -9.710938 11.742188 -10.757812 11.328125 -11.5625 C 10.910156 -12.375 10.316406 -12.96875 9.546875 -13.34375 C 8.785156 -13.726562 7.878906 -13.921875 6.828125 -13.921875 Z M 5.25 -13.921875 "/></g></g></g><g fill="#c5a059" fill-opacity="1"><g transform="translate(985.078645, 493.612147)"><g><path d="M 4.203125 -5.171875 C 4.191406 -4.566406 4.285156 -4.039062 4.484375 -3.59375 C 4.679688 -3.144531 4.96875 -2.800781 5.34375 -2.5625 C 5.726562 -2.320312 6.191406 -2.203125 6.734375 -2.203125 C 7.304688 -2.203125 7.804688 -2.320312 8.234375 -2.5625 C 8.671875 -2.8125 8.972656 -3.210938 9.140625 -3.765625 L 12.171875 -3.765625 C 12.035156 -2.921875 11.695312 -2.203125 11.15625 -1.609375 C 10.613281 -1.015625 9.957031 -0.554688 9.1875 -0.234375 C 8.425781 0.078125 7.632812 0.234375 6.8125 0.234375 C 5.632812 0.234375 4.597656 -0.0078125 3.703125 -0.5 C 2.816406 -1 2.125 -1.703125 1.625 -2.609375 C 1.125 -3.515625 0.875 -4.582031 0.875 -5.8125 C 0.875 -7 1.097656 -8.066406 1.546875 -9.015625 C 2.003906 -9.972656 2.660156 -10.726562 3.515625 -11.28125 C 4.378906 -11.84375 5.421875 -12.125 6.640625 -12.125 C 7.847656 -12.125 8.863281 -11.867188 9.6875 -11.359375 C 10.507812 -10.847656 11.128906 -10.132812 11.546875 -9.21875 C 11.960938 -8.3125 12.171875 -7.265625 12.171875 -6.078125 L 12.171875 -5.171875 Z M 4.1875 -7.171875 L 9.03125 -7.171875 C 9.03125 -7.648438 8.941406 -8.085938 8.765625 -8.484375 C 8.597656 -8.878906 8.332031 -9.191406 7.96875 -9.421875 C 7.613281 -9.660156 7.171875 -9.78125 6.640625 -9.78125 C 6.117188 -9.78125 5.675781 -9.65625 5.3125 -9.40625 C 4.945312 -9.15625 4.664062 -8.828125 4.46875 -8.421875 C 4.28125 -8.023438 4.1875 -7.609375 4.1875 -7.171875 Z M 4.1875 -7.171875 "/></g></g></g><g fill="#c5a059" fill-opacity="1"><g transform="translate(997.678361, 493.612147)"><g><path d="M 11.65625 -11.890625 L 7.203125 0 L 4.765625 0 L 0.296875 -11.890625 L 3.328125 -11.890625 L 5.9375 -4.3125 L 6.03125 -4.3125 L 8.59375 -11.890625 Z M 11.65625 -11.890625 "/></g></g></g><g fill="#c5a059" fill-opacity="1"><g transform="translate(1009.128449, 493.612147)"><g><path d="M 4.203125 -5.171875 C 4.191406 -4.566406 4.285156 -4.039062 4.484375 -3.59375 C 4.679688 -3.144531 4.96875 -2.800781 5.34375 -2.5625 C 5.726562 -2.320312 6.191406 -2.203125 6.734375 -2.203125 C 7.304688 -2.203125 7.804688 -2.320312 8.234375 -2.5625 C 8.671875 -2.8125 8.972656 -3.210938 9.140625 -3.765625 L 12.171875 -3.765625 C 12.035156 -2.921875 11.695312 -2.203125 11.15625 -1.609375 C 10.613281 -1.015625 9.957031 -0.554688 9.1875 -0.234375 C 8.425781 0.078125 7.632812 0.234375 6.8125 0.234375 C 5.632812 0.234375 4.597656 -0.0078125 3.703125 -0.5 C 2.816406 -1 2.125 -1.703125 1.625 -2.609375 C 1.125 -3.515625 0.875 -4.582031 0.875 -5.8125 C 0.875 -7 1.097656 -8.066406 1.546875 -9.015625 C 2.003906 -9.972656 2.660156 -10.726562 3.515625 -11.28125 C 4.378906 -11.84375 5.421875 -12.125 6.640625 -12.125 C 7.847656 -12.125 8.863281 -11.867188 9.6875 -11.359375 C 10.507812 -10.847656 11.128906 -10.132812 11.546875 -9.21875 C 11.960938 -8.3125 12.171875 -7.265625 12.171875 -6.078125 L 12.171875 -5.171875 Z M 4.1875 -7.171875 L 9.03125 -7.171875 C 9.03125 -7.648438 8.941406 -8.085938 8.765625 -8.484375 C 8.597656 -8.878906 8.332031 -9.191406 7.96875 -9.421875 C 7.613281 -9.660156 7.171875 -9.78125 6.640625 -9.78125 C 6.117188 -9.78125 5.675781 -9.65625 5.3125 -9.40625 C 4.945312 -9.15625 4.664062 -8.828125 4.46875 -8.421875 C 4.28125 -8.023438 4.1875 -7.609375 4.1875 -7.171875 Z M 4.1875 -7.171875 "/></g></g></g><g fill="#c5a059" fill-opacity="1"><g transform="translate(1022.199524, 493.612147)"><g><path d="M 5.234375 0.203125 C 4.359375 0.203125 3.660156 0.101562 3.140625 -0.09375 C 2.628906 -0.300781 2.25 -0.578125 2 -0.921875 C 1.757812 -1.265625 1.601562 -1.644531 1.53125 -2.0625 C 1.46875 -2.476562 1.4375 -2.898438 1.4375 -3.328125 L 1.4375 -17.09375 L 4.71875 -17.09375 L 4.71875 -3.75 C 4.71875 -3.3125 4.8125 -2.957031 5 -2.6875 C 5.195312 -2.414062 5.554688 -2.25 6.078125 -2.1875 L 6.640625 -2.15625 L 6.640625 -0.078125 C 6.410156 -0.00390625 6.175781 0.0546875 5.9375 0.109375 C 5.695312 0.171875 5.460938 0.203125 5.234375 0.203125 Z M 5.234375 0.203125 "/></g></g></g><g fill="#c5a059" fill-opacity="1"><g transform="translate(1029.522552, 493.612147)"><g><path d="M 6.546875 0.234375 C 5.378906 0.234375 4.363281 -0.015625 3.5 -0.515625 C 2.632812 -1.015625 1.96875 -1.71875 1.5 -2.625 C 1.03125 -3.539062 0.796875 -4.625 0.796875 -5.875 C 0.796875 -7.125 1.03125 -8.21875 1.5 -9.15625 C 1.96875 -10.09375 2.632812 -10.820312 3.5 -11.34375 C 4.363281 -11.863281 5.382812 -12.125 6.5625 -12.125 C 7.726562 -12.125 8.738281 -11.867188 9.59375 -11.359375 C 10.457031 -10.847656 11.125 -10.125 11.59375 -9.1875 C 12.0625 -8.25 12.296875 -7.144531 12.296875 -5.875 C 12.296875 -4.675781 12.066406 -3.617188 11.609375 -2.703125 C 11.148438 -1.785156 10.492188 -1.066406 9.640625 -0.546875 C 8.785156 -0.0234375 7.753906 0.234375 6.546875 0.234375 Z M 6.5625 -2.265625 C 7.144531 -2.265625 7.613281 -2.4375 7.96875 -2.78125 C 8.332031 -3.125 8.597656 -3.578125 8.765625 -4.140625 C 8.929688 -4.703125 9.015625 -5.316406 9.015625 -5.984375 C 9.015625 -6.617188 8.9375 -7.210938 8.78125 -7.765625 C 8.632812 -8.328125 8.378906 -8.78125 8.015625 -9.125 C 7.660156 -9.46875 7.175781 -9.640625 6.5625 -9.640625 C 5.96875 -9.640625 5.488281 -9.476562 5.125 -9.15625 C 4.757812 -8.832031 4.492188 -8.390625 4.328125 -7.828125 C 4.160156 -7.273438 4.078125 -6.660156 4.078125 -5.984375 C 4.078125 -5.367188 4.148438 -4.773438 4.296875 -4.203125 C 4.453125 -3.628906 4.707031 -3.160156 5.0625 -2.796875 C 5.425781 -2.441406 5.925781 -2.265625 6.5625 -2.265625 Z M 6.5625 -2.265625 "/></g></g></g><g fill="#c5a059" fill-opacity="1"><g transform="translate(1042.605117, 493.612147)"><g><path d="M 1.4375 3.703125 L 1.4375 -11.890625 L 4.8125 -11.890625 L 4.8125 -10.171875 C 4.988281 -10.460938 5.207031 -10.722656 5.46875 -10.953125 C 5.726562 -11.179688 6.015625 -11.382812 6.328125 -11.5625 C 6.640625 -11.738281 6.976562 -11.875 7.34375 -11.96875 C 7.71875 -12.070312 8.109375 -12.125 8.515625 -12.125 C 9.390625 -12.125 10.171875 -11.90625 10.859375 -11.46875 C 11.554688 -11.039062 12.101562 -10.375 12.5 -9.46875 C 12.894531 -8.570312 13.09375 -7.425781 13.09375 -6.03125 C 13.09375 -4.59375 12.878906 -3.410156 12.453125 -2.484375 C 12.023438 -1.566406 11.4375 -0.882812 10.6875 -0.4375 C 9.945312 0.0078125 9.109375 0.234375 8.171875 0.234375 C 7.785156 0.234375 7.425781 0.179688 7.09375 0.078125 C 6.757812 -0.0234375 6.445312 -0.164062 6.15625 -0.34375 C 5.875 -0.53125 5.617188 -0.742188 5.390625 -0.984375 C 5.160156 -1.234375 4.960938 -1.5 4.796875 -1.78125 L 4.796875 3.703125 Z M 7.375 -2.234375 C 8.101562 -2.234375 8.710938 -2.535156 9.203125 -3.140625 C 9.703125 -3.742188 9.953125 -4.703125 9.953125 -6.015625 C 9.953125 -7.160156 9.710938 -8.054688 9.234375 -8.703125 C 8.765625 -9.359375 8.144531 -9.6875 7.375 -9.6875 C 6.507812 -9.6875 5.863281 -9.332031 5.4375 -8.625 C 5.007812 -7.925781 4.796875 -7.054688 4.796875 -6.015625 C 4.796875 -5.347656 4.890625 -4.722656 5.078125 -4.140625 C 5.265625 -3.566406 5.546875 -3.101562 5.921875 -2.75 C 6.304688 -2.40625 6.789062 -2.234375 7.375 -2.234375 Z M 7.375 -2.234375 "/></g></g></g><g fill="#c5a059" fill-opacity="1"><g transform="translate(1056.48094, 493.612147)"><g><path d="M 1.4375 0 L 1.4375 -11.890625 L 4.71875 -11.890625 L 4.71875 -10.21875 C 5.082031 -10.738281 5.566406 -11.1875 6.171875 -11.5625 C 6.785156 -11.9375 7.554688 -12.125 8.484375 -12.125 C 8.890625 -12.125 9.300781 -12.050781 9.71875 -11.90625 C 10.144531 -11.757812 10.546875 -11.546875 10.921875 -11.265625 C 11.296875 -10.984375 11.597656 -10.632812 11.828125 -10.21875 C 12.203125 -10.757812 12.703125 -11.210938 13.328125 -11.578125 C 13.953125 -11.941406 14.648438 -12.125 15.421875 -12.125 C 15.867188 -12.125 16.316406 -12.050781 16.765625 -11.90625 C 17.222656 -11.757812 17.644531 -11.519531 18.03125 -11.1875 C 18.414062 -10.851562 18.722656 -10.410156 18.953125 -9.859375 C 19.191406 -9.316406 19.3125 -8.644531 19.3125 -7.84375 L 19.3125 0 L 15.953125 0 L 15.953125 -7.421875 C 15.953125 -7.898438 15.859375 -8.28125 15.671875 -8.5625 C 15.484375 -8.851562 15.242188 -9.0625 14.953125 -9.1875 C 14.671875 -9.320312 14.367188 -9.390625 14.046875 -9.390625 C 13.742188 -9.390625 13.4375 -9.328125 13.125 -9.203125 C 12.820312 -9.085938 12.5625 -8.898438 12.34375 -8.640625 C 12.132812 -8.378906 12.03125 -8.035156 12.03125 -7.609375 L 12.03125 0 L 8.6875 0 L 8.6875 -7.734375 C 8.6875 -8.085938 8.585938 -8.382812 8.390625 -8.625 C 8.203125 -8.875 7.960938 -9.0625 7.671875 -9.1875 C 7.390625 -9.320312 7.097656 -9.390625 6.796875 -9.390625 C 6.492188 -9.390625 6.1875 -9.320312 5.875 -9.1875 C 5.570312 -9.0625 5.316406 -8.863281 5.109375 -8.59375 C 4.898438 -8.332031 4.796875 -8.003906 4.796875 -7.609375 L 4.796875 0 Z M 1.4375 0 "/></g></g></g><g fill="#c5a059" fill-opacity="1"><g transform="translate(1077.070509, 493.612147)"><g><path d="M 4.203125 -5.171875 C 4.191406 -4.566406 4.285156 -4.039062 4.484375 -3.59375 C 4.679688 -3.144531 4.96875 -2.800781 5.34375 -2.5625 C 5.726562 -2.320312 6.191406 -2.203125 6.734375 -2.203125 C 7.304688 -2.203125 7.804688 -2.320312 8.234375 -2.5625 C 8.671875 -2.8125 8.972656 -3.210938 9.140625 -3.765625 L 12.171875 -3.765625 C 12.035156 -2.921875 11.695312 -2.203125 11.15625 -1.609375 C 10.613281 -1.015625 9.957031 -0.554688 9.1875 -0.234375 C 8.425781 0.078125 7.632812 0.234375 6.8125 0.234375 C 5.632812 0.234375 4.597656 -0.0078125 3.703125 -0.5 C 2.816406 -1 2.125 -1.703125 1.625 -2.609375 C 1.125 -3.515625 0.875 -4.582031 0.875 -5.8125 C 0.875 -7 1.097656 -8.066406 1.546875 -9.015625 C 2.003906 -9.972656 2.660156 -10.726562 3.515625 -11.28125 C 4.378906 -11.84375 5.421875 -12.125 6.640625 -12.125 C 7.847656 -12.125 8.863281 -11.867188 9.6875 -11.359375 C 10.507812 -10.847656 11.128906 -10.132812 11.546875 -9.21875 C 11.960938 -8.3125 12.171875 -7.265625 12.171875 -6.078125 L 12.171875 -5.171875 Z M 4.1875 -7.171875 L 9.03125 -7.171875 C 9.03125 -7.648438 8.941406 -8.085938 8.765625 -8.484375 C 8.597656 -8.878906 8.332031 -9.191406 7.96875 -9.421875 C 7.613281 -9.660156 7.171875 -9.78125 6.640625 -9.78125 C 6.117188 -9.78125 5.675781 -9.65625 5.3125 -9.40625 C 4.945312 -9.15625 4.664062 -8.828125 4.46875 -8.421875 C 4.28125 -8.023438 4.1875 -7.609375 4.1875 -7.171875 Z M 4.1875 -7.171875 "/></g></g></g><g fill="#c5a059" fill-opacity="1"><g transform="translate(1090.141629, 493.612147)"><g><path d="M 1.4375 0 L 1.4375 -11.890625 L 4.734375 -11.890625 L 4.734375 -10.21875 C 4.921875 -10.507812 5.160156 -10.789062 5.453125 -11.0625 C 5.753906 -11.332031 6.128906 -11.554688 6.578125 -11.734375 C 7.023438 -11.910156 7.5625 -12 8.1875 -12 C 8.914062 -12 9.59375 -11.851562 10.21875 -11.5625 C 10.851562 -11.28125 11.363281 -10.832031 11.75 -10.21875 C 12.144531 -9.613281 12.34375 -8.820312 12.34375 -7.84375 L 12.34375 0 L 9 0 L 9 -7.421875 C 9 -8.066406 8.804688 -8.550781 8.421875 -8.875 C 8.035156 -9.195312 7.566406 -9.359375 7.015625 -9.359375 C 6.648438 -9.359375 6.296875 -9.289062 5.953125 -9.15625 C 5.609375 -9.03125 5.328125 -8.835938 5.109375 -8.578125 C 4.898438 -8.316406 4.796875 -7.992188 4.796875 -7.609375 L 4.796875 0 Z M 1.4375 0 "/></g></g></g><g fill="#c5a059" fill-opacity="1"><g transform="translate(1103.247128, 493.612147)"><g><path d="M 8.6875 -9.5625 L 6.03125 -9.5625 L 6.0625 -3.21875 C 6.0625 -2.925781 6.097656 -2.707031 6.171875 -2.5625 C 6.242188 -2.425781 6.359375 -2.335938 6.515625 -2.296875 C 6.671875 -2.253906 6.875 -2.234375 7.125 -2.234375 L 8.71875 -2.234375 L 8.71875 -0.15625 C 8.5625 -0.09375 8.320312 -0.03125 8 0.03125 C 7.675781 0.09375 7.222656 0.125 6.640625 0.125 C 5.597656 0.125 4.789062 -0.00390625 4.21875 -0.265625 C 3.644531 -0.535156 3.242188 -0.910156 3.015625 -1.390625 C 2.796875 -1.878906 2.6875 -2.441406 2.6875 -3.078125 L 2.6875 -9.5625 L 0.765625 -9.5625 L 0.765625 -11.890625 L 2.8125 -11.890625 L 3.640625 -15.484375 L 6.03125 -15.484375 L 6.03125 -11.90625 L 8.6875 -11.90625 Z M 8.6875 -9.5625 "/></g></g></g></svg>