<svg xmlns="http://www.w3.org/2000/svg" xmlns:xlink="http://www.w3.org/1999/xlink" width="380" zoomAndPan="magnify" viewBox="0 0 285 231" height="308" preserveAspectRatio="xMidYMid meet" version="1.0"><defs><clipPath id="ea8d52a306"><path d="M 70.382812 85.925781 L 198 85.925781 L 198 209 L 70.382812 209 Z M 70.382812 85.925781 " clip-rule="nonzero"/></clipPath></defs><path fill="#c5a059" d="M 175.824219 124.875 C 175.660156 124.554688 175.46875 124.226562 175.433594 124.148438 C 174.914062 122.898438 174.578125 121.554688 174.425781 120.210938 C 174.007812 116.53125 174.796875 113.121094 176.316406 109.75 C 176.773438 108.734375 177.273438 107.738281 177.753906 106.730469 C 177.8125 106.613281 178.066406 105.871094 178.242188 105.863281 C 178.371094 105.859375 178.425781 106.953125 178.4375 107.039062 C 178.570312 108.40625 178.742188 109.78125 178.976562 111.132812 C 179.625 114.902344 180.171875 118.792969 179.257812 122.585938 C 178.945312 123.875 178.359375 125.605469 177.074219 126.324219 C 176.082031 133.210938 172.824219 139.390625 170.511719 145.917969 C 170.832031 145.347656 171.167969 144.785156 171.519531 144.234375 C 174.628906 139.355469 178.882812 135.730469 184.121094 133.285156 C 185.257812 132.753906 186.398438 132.253906 187.558594 131.785156 C 187.691406 131.734375 188.515625 131.296875 188.632812 131.433594 C 188.800781 131.640625 188.113281 132.777344 188.019531 132.96875 C 187.234375 134.613281 186.394531 136.230469 185.601562 137.871094 C 183.070312 143.140625 178.6875 147.089844 173.671875 150 C 172.414062 150.730469 170.339844 152.136719 168.710938 152.207031 C 167.441406 158.296875 167.558594 164.421875 168.691406 170.480469 C 168.75 169.652344 168.824219 168.824219 168.917969 167.996094 C 169.304688 164.519531 169.964844 159.949219 172.273438 156.988281 C 172.101562 156.808594 171.957031 156.59375 171.855469 156.351562 C 171.394531 155.273438 171.910156 154.015625 173.003906 153.546875 C 174.101562 153.078125 175.367188 153.574219 175.828125 154.65625 C 176.289062 155.738281 175.773438 156.996094 174.675781 157.464844 C 174.3125 157.621094 173.929688 157.667969 173.5625 157.625 C 171.253906 160.363281 170.695312 164.800781 170.324219 168.136719 C 170.273438 168.582031 170.230469 169.03125 170.1875 169.480469 C 171.214844 165.164062 173.035156 160.910156 175.9375 157.503906 C 176.335938 157.039062 178.5 154.179688 179.347656 154.453125 C 179.570312 154.519531 179.257812 155.679688 179.234375 155.839844 C 179.007812 157.367188 178.949219 158.921875 178.90625 160.464844 C 178.769531 165.785156 177.347656 170.273438 173.976562 174.574219 C 173.003906 175.816406 171.488281 176.621094 170.511719 177.804688 C 171.371094 180.75 172.300781 183.671875 173.175781 186.605469 C 173.316406 186.1875 173.460938 185.769531 173.609375 185.351562 C 174.5 182.851562 175.6875 180.503906 177.335938 178.402344 C 177.375 178.351562 177.421875 178.308594 177.46875 178.269531 C 177.4375 178.207031 177.40625 178.144531 177.378906 178.078125 C 176.917969 177 177.429688 175.742188 178.527344 175.273438 C 179.625 174.804688 180.890625 175.300781 181.351562 176.382812 C 181.8125 177.464844 181.296875 178.722656 180.199219 179.191406 C 179.632812 179.433594 179.019531 179.414062 178.496094 179.191406 C 178.480469 179.214844 178.46875 179.234375 178.449219 179.253906 C 176.898438 181.234375 175.785156 183.449219 174.945312 185.808594 C 174.652344 186.628906 174.371094 187.457031 174.101562 188.285156 C 174.0625 188.410156 174.085938 188.601562 174.082031 188.777344 C 174.074219 189.023438 174.050781 189.246094 173.996094 189.40625 L 173.988281 189.429688 C 174.777344 192.25 175.476562 195.09375 175.972656 198.003906 C 176.285156 199.824219 176.472656 201.667969 176.664062 203.503906 C 176.699219 203.835938 176.867188 204.5 176.859375 205.019531 C 176.851562 205.394531 176.757812 205.722656 176.59375 205.945312 C 176.363281 206.261719 175.917969 206.335938 175.605469 206.109375 C 175.296875 205.894531 175.222656 205.476562 175.425781 205.164062 C 175.429688 205.121094 175.441406 204.835938 175.421875 204.664062 C 175.371094 204.277344 175.277344 203.886719 175.253906 203.660156 C 175.070312 201.855469 174.882812 200.042969 174.578125 198.25 C 174.140625 195.6875 173.542969 193.167969 172.863281 190.675781 C 172.476562 190.347656 172.046875 190.023438 172.007812 189.996094 C 170.183594 188.667969 168.039062 187.660156 165.945312 186.820312 C 161.027344 184.855469 157.585938 182.027344 155.976562 176.878906 C 155.734375 176.09375 154.628906 173.199219 155.207031 172.363281 C 155.25 172.304688 156.253906 173.132812 156.328125 173.183594 C 157.621094 174.128906 158.894531 175.085938 160.148438 176.074219 C 163.019531 178.34375 165.75 180.710938 168.472656 183.144531 C 169.570312 184.121094 170.625 185 171.519531 186.015625 C 170.484375 182.589844 169.390625 179.179688 168.445312 175.71875 C 167.410156 171.941406 166.730469 168.128906 166.484375 164.308594 C 166.074219 164.210938 165.355469 164.148438 165.089844 164.058594 C 163.832031 163.632812 162.636719 163.050781 161.503906 162.367188 C 156.691406 159.46875 153.378906 154.582031 151.746094 149.296875 C 151.214844 147.574219 150.757812 145.8125 150.492188 144.027344 C 150.453125 143.785156 150.183594 142.613281 150.539062 142.445312 C 150.71875 142.363281 151.429688 143.558594 151.519531 143.675781 C 152.527344 144.996094 153.761719 146.089844 154.925781 147.261719 C 158.578125 150.953125 162.285156 154.863281 165.019531 159.332031 C 164.820312 158.410156 164.617188 157.496094 164.386719 156.582031 C 163.355469 152.429688 162.171875 148.460938 159.707031 144.929688 C 159.699219 144.917969 159.691406 144.90625 159.683594 144.894531 C 158.65625 145.191406 157.546875 144.691406 157.121094 143.695312 C 156.660156 142.613281 157.175781 141.355469 158.273438 140.886719 C 159.367188 140.417969 160.632812 140.917969 161.09375 141.996094 C 161.398438 142.710938 161.277344 143.5 160.847656 144.089844 C 160.855469 144.101562 160.867188 144.113281 160.875 144.125 C 163.4375 147.796875 164.691406 151.917969 165.765625 156.234375 C 166.003906 157.195312 166.21875 158.164062 166.429688 159.132812 C 166.574219 155.773438 167.089844 152.410156 168.027344 149.066406 C 168.765625 146.445312 169.738281 143.90625 170.75 141.390625 C 170.734375 141.210938 170.738281 140.769531 170.683594 140.589844 C 170.507812 140.003906 170.296875 139.421875 170.046875 138.863281 C 169.332031 137.265625 168.386719 135.785156 167.4375 134.324219 C 164.332031 129.53125 162.136719 125.179688 161.867188 119.316406 C 161.804688 117.996094 161.804688 116.65625 161.980469 115.339844 C 162 115.179688 162.050781 114.15625 162.246094 114.074219 C 162.332031 114.035156 163.105469 115.445312 163.164062 115.535156 C 164.171875 117.089844 165.277344 118.582031 166.363281 120.085938 C 168.859375 123.546875 169.835938 127.382812 170.800781 131.476562 C 171.070312 132.632812 171.335938 133.707031 171.554688 134.746094 C 171.671875 133.671875 171.757812 132.589844 171.785156 131.507812 C 171.902344 127.015625 171.554688 122.554688 170.285156 118.25 C 169.464844 118.238281 168.695312 117.757812 168.355469 116.964844 C 167.894531 115.882812 168.410156 114.628906 169.507812 114.160156 C 170.605469 113.691406 171.867188 114.1875 172.332031 115.269531 C 172.722656 116.1875 172.410156 117.234375 171.632812 117.8125 C 172.953125 122.265625 173.320312 126.882812 173.199219 131.53125 C 173.15625 133.121094 173 134.710938 172.792969 136.292969 C 174.214844 132.609375 175.433594 128.871094 175.824219 124.875 Z M 169.578125 172.738281 L 169.578125 172.742188 C 169.566406 172.734375 169.554688 172.730469 169.542969 172.726562 C 169.554688 172.730469 169.566406 172.734375 169.578125 172.738281 Z M 169.578125 172.738281 " fill-opacity="1" fill-rule="evenodd"/><g clip-path="url(#ea8d52a306)"><path fill="#c5a059" d="M 149.949219 150.59375 L 147.558594 142.230469 L 105.648438 142.230469 L 105.648438 103.1875 C 105.648438 98.601562 106.699219 95.070312 108.808594 92.589844 C 110.792969 90.238281 115.195312 89.058594 122.011719 89.058594 L 122.011719 85.898438 L 70.511719 85.898438 L 70.511719 89.058594 L 71.628906 89.246094 C 73.363281 89.492188 74.664062 89.679688 75.535156 89.804688 C 77.761719 90.175781 79.5625 90.546875 80.921875 90.917969 C 82.285156 91.289062 83.648438 92.53125 85.011719 94.636719 C 86.125 96.867188 86.6875 100.398438 86.6875 105.234375 L 86.6875 188.335938 C 86.6875 194.40625 85.757812 198.746094 83.898438 201.347656 C 82.039062 203.949219 77.574219 205.25 70.511719 205.25 L 70.511719 208.96875 L 122.011719 208.96875 L 122.011719 205.25 C 115.9375 205.25 111.722656 204.261719 109.363281 202.277344 C 106.886719 200.171875 105.648438 196.699219 105.648438 191.867188 L 105.648438 150.59375 Z M 181.476562 195.621094 L 161.445312 195.621094 C 161.328125 196.609375 161.199219 197.527344 161.050781 198.371094 C 160.300781 201.101562 159.128906 202.710938 157.515625 203.207031 C 155.65625 203.949219 153.925781 204.445312 152.3125 204.695312 C 150.328125 205.066406 148.09375 205.25 145.617188 205.25 L 145.617188 208.96875 L 197.484375 208.96875 L 197.484375 205.25 C 192.902344 205.25 189.371094 204.695312 186.890625 203.578125 C 184.535156 202.464844 182.984375 200.851562 182.242188 198.746094 C 181.914062 197.8125 181.65625 196.769531 181.476562 195.621094 Z M 161.980469 105.132812 L 181.125 105.132812 L 181.125 104.117188 C 181.125 99.410156 181.746094 96.0625 182.984375 94.078125 C 184.226562 92.097656 185.710938 90.917969 187.445312 90.546875 L 197.484375 89.429688 L 197.484375 85.898438 L 145.617188 85.898438 L 145.617188 89.058594 C 147.109375 89.058594 148.96875 89.183594 151.195312 89.429688 C 151.570312 89.554688 152.433594 89.804688 153.796875 90.175781 C 154.292969 90.300781 155.164062 90.546875 156.402344 90.917969 C 158.386719 91.539062 159.8125 92.839844 160.675781 94.824219 C 161.542969 96.683594 161.980469 99.53125 161.980469 103.375 Z M 161.980469 105.132812 " fill-opacity="1" fill-rule="nonzero"/></g><path fill="#c5a059" d="M 151.34375 226.136719 L 202.398438 226.136719 C 203.171875 226.144531 203.9375 226.074219 204.695312 225.929688 C 205.457031 225.789062 206.191406 225.570312 206.910156 225.285156 C 207.625 224.996094 208.308594 224.640625 208.957031 224.21875 C 209.601562 223.792969 210.203125 223.3125 210.753906 222.773438 C 211.308594 222.234375 211.800781 221.644531 212.238281 221.007812 C 212.675781 220.371094 213.046875 219.699219 213.351562 218.988281 C 213.65625 218.277344 213.890625 217.542969 214.050781 216.789062 C 214.210938 216.035156 214.296875 215.269531 214.308594 214.496094 L 214.308594 108.960938 C 214.320312 108.1875 214.40625 107.425781 214.566406 106.667969 C 214.730469 105.914062 214.964844 105.179688 215.269531 104.472656 C 215.574219 103.761719 215.945312 103.089844 216.382812 102.453125 C 216.820312 101.816406 217.3125 101.230469 217.867188 100.691406 C 218.417969 100.148438 219.019531 99.667969 219.664062 99.246094 C 220.3125 98.828125 220.992188 98.472656 221.710938 98.183594 C 222.425781 97.894531 223.164062 97.679688 223.921875 97.539062 C 224.683594 97.394531 225.449219 97.324219 226.21875 97.332031 L 239.617188 97.332031 C 246.175781 97.332031 247.0625 94.421875 241.648438 90.878906 L 205.605469 67.441406 C 200.191406 63.882812 191.238281 58.082031 185.792969 54.53125 L 149.246094 30.039062 L 149.246094 27.433594 L 240.757812 87.027344 C 247.382812 92.027344 247.746094 94.511719 247.257812 96.082031 C 246.773438 97.652344 245.054688 99.519531 239.625 99.519531 L 226.226562 99.519531 C 225.597656 99.515625 224.976562 99.570312 224.363281 99.6875 C 223.746094 99.800781 223.148438 99.976562 222.566406 100.210938 C 221.984375 100.445312 221.429688 100.734375 220.90625 101.074219 C 220.378906 101.417969 219.894531 101.808594 219.445312 102.246094 C 218.996094 102.683594 218.59375 103.160156 218.238281 103.679688 C 217.886719 104.195312 217.582031 104.742188 217.335938 105.316406 C 217.089844 105.894531 216.898438 106.488281 216.765625 107.101562 C 216.636719 107.714844 216.566406 108.332031 216.554688 108.960938 L 216.554688 214.53125 C 216.542969 215.449219 216.445312 216.355469 216.253906 217.253906 C 216.0625 218.152344 215.789062 219.019531 215.425781 219.863281 C 215.066406 220.707031 214.625 221.507812 214.105469 222.265625 C 213.585938 223.019531 213 223.71875 212.34375 224.359375 C 211.6875 225.003906 210.976562 225.574219 210.207031 226.074219 C 209.4375 226.574219 208.628906 226.996094 207.777344 227.335938 C 206.925781 227.679688 206.050781 227.933594 205.148438 228.105469 C 204.246094 228.273438 203.335938 228.351562 202.417969 228.34375 L 151.34375 228.34375 Z M 151.34375 226.136719 " fill-opacity="1" fill-rule="nonzero"/><path fill="#c5a059" d="M 43.949219 213.015625 L 43.949219 118.324219 C 43.945312 117.183594 43.820312 116.054688 43.574219 114.9375 C 43.324219 113.820312 42.960938 112.746094 42.476562 111.707031 C 41.996094 110.671875 41.40625 109.699219 40.714844 108.789062 C 40.019531 107.882812 39.238281 107.058594 38.363281 106.320312 C 39.40625 107.535156 40.203125 108.894531 40.757812 110.398438 C 41.3125 111.898438 41.585938 113.449219 41.585938 115.050781 L 41.585938 209.699219 C 41.585938 211.019531 41.730469 212.320312 42.019531 213.609375 C 42.304688 214.898438 42.726562 216.136719 43.285156 217.332031 C 43.84375 218.527344 44.523438 219.648438 45.328125 220.695312 C 46.132812 221.742188 47.039062 222.691406 48.046875 223.539062 C 46.734375 222.101562 45.722656 220.472656 45.015625 218.660156 C 44.308594 216.84375 43.953125 214.960938 43.949219 213.015625 Z M 43.949219 213.015625 " fill-opacity="1" fill-rule="nonzero"/><path fill="#c5a059" d="M 241.195312 118.324219 L 241.195312 213.015625 C 241.191406 214.96875 240.835938 216.851562 240.128906 218.671875 C 239.421875 220.492188 238.410156 222.125 237.09375 223.566406 C 238.105469 222.714844 239.015625 221.765625 239.820312 220.71875 C 240.625 219.667969 241.308594 218.546875 241.867188 217.347656 C 242.425781 216.152344 242.847656 214.90625 243.132812 213.617188 C 243.421875 212.328125 243.5625 211.019531 243.5625 209.699219 L 243.5625 115.050781 C 243.566406 113.453125 243.84375 111.902344 244.398438 110.40625 C 244.957031 108.90625 245.757812 107.550781 246.800781 106.339844 C 245.925781 107.078125 245.140625 107.898438 244.445312 108.804688 C 243.75 109.710938 243.160156 110.679688 242.675781 111.714844 C 242.191406 112.75 241.824219 113.824219 241.578125 114.941406 C 241.328125 116.054688 241.199219 117.183594 241.195312 118.324219 Z M 241.195312 118.324219 " fill-opacity="1" fill-rule="nonzero"/><path fill="#c5a059" d="M 278.695312 88.515625 L 157.003906 7.394531 C 155.917969 6.742188 154.792969 6.167969 153.632812 5.667969 C 152.46875 5.167969 151.277344 4.746094 150.058594 4.410156 C 148.835938 4.070312 147.601562 3.816406 146.34375 3.644531 C 145.089844 3.472656 143.832031 3.386719 142.566406 3.386719 C 141.296875 3.386719 140.039062 3.472656 138.785156 3.644531 C 137.53125 3.816406 136.292969 4.070312 135.074219 4.410156 C 133.851562 4.746094 132.660156 5.167969 131.5 5.667969 C 130.335938 6.167969 129.210938 6.742188 128.125 7.394531 L 6.457031 88.515625 C 0.769531 92.304688 0.277344 95.417969 0.867188 97.355469 C 1.269531 98.601562 2.050781 99.53125 3.207031 100.148438 C 2.566406 98.542969 4.027344 96.292969 7.769531 93.800781 L 55.480469 61.992188 L 81.734375 44.492188 L 129.445312 12.6875 C 130.433594 12.097656 131.457031 11.578125 132.515625 11.128906 C 133.574219 10.675781 134.65625 10.296875 135.765625 9.992188 C 136.875 9.6875 138 9.457031 139.140625 9.304688 C 140.28125 9.148438 141.425781 9.074219 142.574219 9.074219 C 143.726562 9.074219 144.871094 9.148438 146.011719 9.304688 C 147.148438 9.457031 148.273438 9.6875 149.382812 9.992188 C 150.492188 10.296875 151.574219 10.675781 152.632812 11.128906 C 153.691406 11.578125 154.714844 12.097656 155.703125 12.6875 L 203.414062 44.492188 L 229.671875 61.992188 L 277.382812 93.800781 C 281.125 96.292969 282.578125 98.539062 281.933594 100.148438 C 283.09375 99.535156 283.875 98.601562 284.277344 97.355469 C 284.90625 95.425781 284.378906 92.304688 278.695312 88.515625 Z M 278.695312 88.515625 " fill-opacity="1" fill-rule="nonzero"/></svg>