<svg xmlns="http://www.w3.org/2000/svg" xmlns:xlink="http://www.w3.org/1999/xlink" width="860" zoomAndPan="magnify" viewBox="0 0 645 447.749989" height="597" preserveAspectRatio="xMidYMid meet" version="1.0"><defs><clipPath id="e606b49cfd"><path d="M 0.179688 0 L 644.820312 0 L 644.820312 447.5 L 0.179688 447.5 Z M 0.179688 0 " clip-rule="nonzero"/></clipPath><clipPath id="b4ac185807"><path d="M 0.179688 0 L 644.492188 0 L 644.492188 447.203125 L 0.179688 447.203125 Z M 0.179688 0 " clip-rule="nonzero"/></clipPath><clipPath id="28399567d1"><path d="M 0.179688 0 L 644.492188 0 L 644.492188 447.203125 L 0.179688 447.203125 Z M 0.179688 0 " clip-rule="nonzero"/></clipPath><clipPath id="e60314df38"><rect x="0" width="645" y="0" height="448"/></clipPath><clipPath id="fb6ce5a9bf"><path d="M 250.304688 179.789062 L 378 179.789062 L 378 303 L 250.304688 303 Z M 250.304688 179.789062 " clip-rule="nonzero"/></clipPath><clipPath id="c5a8e2edb7"><path d="M 180 97 L 464.800781 97 L 464.800781 195 L 180 195 Z M 180 97 " clip-rule="nonzero"/></clipPath></defs><g clip-path="url(#e606b49cfd)"><path fill="#ffffff" d="M 0.179688 0 L 644.820312 0 L 644.820312 447.5 L 0.179688 447.5 Z M 0.179688 0 " fill-opacity="1" fill-rule="nonzero"/></g><g clip-path="url(#b4ac185807)"><g transform="matrix(1, 0, 0, 1, 0.000000000000000028, 0)"><g clip-path="url(#e60314df38)"><g clip-path="url(#28399567d1)"><path fill="#1b263b" d="M 0.179688 0 L 644.78125 0 L 644.78125 447.203125 L 0.179688 447.203125 Z M 0.179688 0 " fill-opacity="1" fill-rule="nonzero"/></g></g></g></g><path fill="#c5a059" d="M 355.6875 218.714844 C 355.519531 218.394531 355.328125 218.066406 355.296875 217.988281 C 354.777344 216.738281 354.441406 215.398438 354.289062 214.050781 C 353.871094 210.375 354.660156 206.96875 356.179688 203.601562 C 356.636719 202.585938 357.136719 201.585938 357.617188 200.582031 C 357.671875 200.460938 357.929688 199.71875 358.101562 199.714844 C 358.230469 199.710938 358.285156 200.800781 358.296875 200.890625 C 358.429688 202.257812 358.601562 203.628906 358.835938 204.980469 C 359.484375 208.746094 360.03125 212.636719 359.117188 216.425781 C 358.804688 217.714844 358.21875 219.445312 356.933594 220.164062 C 355.941406 227.046875 352.6875 233.222656 350.378906 239.746094 C 350.695312 239.175781 351.03125 238.613281 351.382812 238.0625 C 354.488281 233.1875 358.742188 229.5625 363.980469 227.117188 C 365.113281 226.589844 366.253906 226.089844 367.414062 225.625 C 367.546875 225.570312 368.371094 225.132812 368.488281 225.273438 C 368.65625 225.476562 367.964844 226.613281 367.875 226.804688 C 367.089844 228.445312 366.25 230.0625 365.460938 231.703125 C 362.925781 236.972656 358.546875 240.917969 353.535156 243.828125 C 352.277344 244.554688 350.207031 245.960938 348.578125 246.03125 C 347.304688 252.117188 347.425781 258.238281 348.554688 264.296875 C 348.613281 263.46875 348.691406 262.636719 348.78125 261.8125 C 349.167969 258.335938 349.832031 253.769531 352.136719 250.808594 C 351.964844 250.628906 351.820312 250.417969 351.71875 250.175781 C 351.257812 249.09375 351.773438 247.835938 352.867188 247.371094 C 353.964844 246.902344 355.226562 247.398438 355.6875 248.480469 C 356.148438 249.558594 355.636719 250.816406 354.539062 251.285156 C 354.175781 251.441406 353.789062 251.488281 353.425781 251.445312 C 351.117188 254.183594 350.558594 258.621094 350.1875 261.953125 C 350.140625 262.398438 350.09375 262.847656 350.054688 263.296875 C 351.078125 258.984375 352.898438 254.730469 355.800781 251.324219 C 356.195312 250.859375 358.359375 248.003906 359.207031 248.273438 C 359.429688 248.34375 359.117188 249.5 359.09375 249.660156 C 358.867188 251.1875 358.808594 252.742188 358.765625 254.28125 C 358.628906 259.601562 357.207031 264.089844 353.839844 268.386719 C 352.867188 269.628906 351.351562 270.433594 350.375 271.617188 C 351.234375 274.558594 352.164062 277.476562 353.035156 280.414062 C 353.179688 279.992188 353.324219 279.578125 353.472656 279.160156 C 354.363281 276.660156 355.550781 274.3125 357.195312 272.210938 C 357.238281 272.160156 357.28125 272.117188 357.332031 272.082031 C 357.296875 272.019531 357.265625 271.953125 357.238281 271.890625 C 356.777344 270.808594 357.292969 269.550781 358.386719 269.085938 C 359.484375 268.617188 360.746094 269.113281 361.210938 270.195312 C 361.671875 271.273438 361.15625 272.53125 360.058594 273 C 359.492188 273.242188 358.878906 273.226562 358.355469 273.003906 C 358.339844 273.023438 358.328125 273.042969 358.3125 273.0625 C 356.761719 275.042969 355.644531 277.257812 354.804688 279.613281 C 354.515625 280.433594 354.234375 281.261719 353.964844 282.089844 C 353.925781 282.214844 353.949219 282.40625 353.945312 282.582031 C 353.9375 282.824219 353.914062 283.050781 353.859375 283.210938 L 353.851562 283.230469 C 354.640625 286.050781 355.339844 288.894531 355.835938 291.800781 C 356.144531 293.621094 356.335938 295.464844 356.523438 297.300781 C 356.558594 297.628906 356.726562 298.292969 356.71875 298.816406 C 356.714844 299.191406 356.617188 299.515625 356.453125 299.742188 C 356.222656 300.054688 355.78125 300.128906 355.464844 299.90625 C 355.160156 299.6875 355.085938 299.273438 355.289062 298.960938 C 355.289062 298.914062 355.304688 298.632812 355.28125 298.457031 C 355.234375 298.074219 355.140625 297.683594 355.117188 297.457031 C 354.929688 295.652344 354.746094 293.839844 354.441406 292.050781 C 354 289.488281 353.40625 286.972656 352.726562 284.476562 C 352.339844 284.152344 351.910156 283.828125 351.871094 283.800781 C 350.046875 282.472656 347.90625 281.464844 345.8125 280.628906 C 340.898438 278.660156 337.457031 275.835938 335.851562 270.691406 C 335.605469 269.90625 334.5 267.011719 335.082031 266.179688 C 335.121094 266.121094 336.125 266.945312 336.199219 266.996094 C 337.492188 267.941406 338.765625 268.898438 340.019531 269.886719 C 342.890625 272.152344 345.617188 274.519531 348.339844 276.953125 C 349.433594 277.929688 350.488281 278.804688 351.382812 279.824219 C 350.351562 276.398438 349.253906 272.988281 348.308594 269.53125 C 347.277344 265.753906 346.597656 261.945312 346.351562 258.125 C 345.941406 258.03125 345.222656 257.96875 344.957031 257.878906 C 343.699219 257.449219 342.507812 256.867188 341.375 256.183594 C 336.5625 253.289062 333.253906 248.402344 331.621094 243.121094 C 331.089844 241.402344 330.632812 239.640625 330.367188 237.855469 C 330.332031 237.613281 330.058594 236.445312 330.414062 236.277344 C 330.59375 236.191406 331.304688 237.386719 331.394531 237.507812 C 332.402344 238.824219 333.636719 239.917969 334.796875 241.089844 C 338.449219 244.78125 342.152344 248.6875 344.886719 253.152344 C 344.6875 252.234375 344.484375 251.316406 344.257812 250.40625 C 343.226562 246.257812 342.042969 242.289062 339.578125 238.757812 C 339.570312 238.746094 339.5625 238.734375 339.554688 238.726562 C 338.527344 239.019531 337.417969 238.519531 336.992188 237.523438 C 336.53125 236.441406 337.046875 235.1875 338.144531 234.71875 C 339.238281 234.25 340.503906 234.746094 340.964844 235.828125 C 341.269531 236.539062 341.148438 237.328125 340.71875 237.917969 C 340.726562 237.929688 340.734375 237.941406 340.746094 237.953125 C 343.304688 241.625 344.558594 245.742188 345.632812 250.054688 C 345.871094 251.019531 346.085938 251.984375 346.296875 252.953125 C 346.441406 249.597656 346.953125 246.234375 347.894531 242.890625 C 348.628906 240.273438 349.601562 237.738281 350.613281 235.21875 C 350.597656 235.039062 350.601562 234.601562 350.546875 234.421875 C 350.371094 233.835938 350.160156 233.253906 349.910156 232.695312 C 349.199219 231.101562 348.253906 229.621094 347.304688 228.15625 C 344.199219 223.367188 342.007812 219.019531 341.734375 213.160156 C 341.675781 211.839844 341.675781 210.5 341.847656 209.183594 C 341.871094 209.023438 341.917969 208.003906 342.117188 207.917969 C 342.203125 207.882812 342.976562 209.292969 343.035156 209.382812 C 344.039062 210.9375 345.148438 212.425781 346.230469 213.925781 C 348.726562 217.386719 349.703125 221.21875 350.664062 225.3125 C 350.933594 226.46875 351.199219 227.539062 351.417969 228.582031 C 351.535156 227.503906 351.621094 226.425781 351.648438 225.34375 C 351.765625 220.855469 351.417969 216.398438 350.148438 212.09375 C 349.332031 212.082031 348.5625 211.601562 348.222656 210.808594 C 347.761719 209.730469 348.277344 208.472656 349.371094 208.003906 C 350.46875 207.535156 351.734375 208.035156 352.195312 209.113281 C 352.585938 210.03125 352.273438 211.078125 351.496094 211.65625 C 352.816406 216.109375 353.183594 220.71875 353.0625 225.367188 C 353.019531 226.957031 352.863281 228.546875 352.65625 230.125 C 354.078125 226.445312 355.292969 222.710938 355.6875 218.714844 Z M 349.441406 266.550781 L 349.441406 266.554688 C 349.429688 266.550781 349.417969 266.546875 349.40625 266.539062 C 349.417969 266.542969 349.429688 266.546875 349.441406 266.550781 Z M 349.441406 266.550781 " fill-opacity="1" fill-rule="evenodd"/><g clip-path="url(#fb6ce5a9bf)"><path fill="#c5a059" d="M 329.824219 244.421875 L 327.4375 236.058594 L 285.546875 236.058594 L 285.546875 197.039062 C 285.546875 192.457031 286.597656 188.925781 288.707031 186.449219 C 290.6875 184.097656 295.089844 182.917969 301.902344 182.917969 L 301.902344 179.761719 L 250.433594 179.761719 L 250.433594 182.917969 L 251.546875 183.105469 C 253.285156 183.351562 254.582031 183.539062 255.449219 183.664062 C 257.675781 184.035156 259.476562 184.40625 260.839844 184.777344 C 262.199219 185.148438 263.5625 186.386719 264.921875 188.492188 C 266.039062 190.722656 266.597656 194.253906 266.597656 199.085938 L 266.597656 282.136719 C 266.597656 288.207031 265.671875 292.542969 263.8125 295.144531 C 261.953125 297.746094 257.488281 299.046875 250.433594 299.046875 L 250.433594 302.761719 L 301.902344 302.761719 L 301.902344 299.046875 C 295.832031 299.046875 291.617188 298.054688 289.261719 296.074219 C 286.785156 293.96875 285.546875 290.5 285.546875 285.667969 L 285.546875 244.421875 Z M 361.332031 289.417969 L 341.3125 289.417969 C 341.199219 290.410156 341.070312 291.328125 340.921875 292.171875 C 340.171875 294.898438 339 296.507812 337.386719 297.003906 C 335.527344 297.746094 333.796875 298.242188 332.183594 298.488281 C 330.203125 298.859375 327.972656 299.046875 325.496094 299.046875 L 325.496094 302.761719 L 377.332031 302.761719 L 377.332031 299.046875 C 372.753906 299.046875 369.222656 298.488281 366.746094 297.375 C 364.390625 296.257812 362.84375 294.648438 362.101562 292.542969 C 361.773438 291.613281 361.515625 290.570312 361.332031 289.417969 Z M 341.851562 198.984375 L 360.984375 198.984375 L 360.984375 197.96875 C 360.984375 193.261719 361.605469 189.917969 362.84375 187.9375 C 364.082031 185.953125 365.566406 184.777344 367.300781 184.40625 L 377.332031 183.292969 L 377.332031 179.761719 L 325.496094 179.761719 L 325.496094 182.917969 C 326.984375 182.917969 328.84375 183.042969 331.070312 183.292969 C 331.445312 183.414062 332.308594 183.664062 333.667969 184.035156 C 334.167969 184.15625 335.035156 184.40625 336.277344 184.777344 C 338.257812 185.398438 339.683594 186.699219 340.546875 188.679688 C 341.410156 190.539062 341.851562 193.386719 341.851562 197.226562 Z M 341.851562 198.984375 " fill-opacity="1" fill-rule="nonzero"/></g><path fill="#c5a059" d="M 331.21875 319.921875 L 382.246094 319.921875 C 383.015625 319.925781 383.78125 319.859375 384.542969 319.714844 C 385.300781 319.570312 386.039062 319.355469 386.753906 319.066406 C 387.46875 318.777344 388.152344 318.421875 388.796875 318 C 389.445312 317.578125 390.042969 317.097656 390.597656 316.558594 C 391.148438 316.019531 391.644531 315.429688 392.082031 314.792969 C 392.515625 314.15625 392.886719 313.484375 393.191406 312.773438 C 393.496094 312.066406 393.730469 311.332031 393.890625 310.578125 C 394.050781 309.824219 394.136719 309.058594 394.148438 308.285156 L 394.148438 202.808594 C 394.160156 202.035156 394.246094 201.273438 394.40625 200.519531 C 394.570312 199.765625 394.800781 199.03125 395.105469 198.324219 C 395.414062 197.613281 395.785156 196.941406 396.21875 196.304688 C 396.65625 195.667969 397.152344 195.082031 397.703125 194.542969 C 398.257812 194.003906 398.855469 193.523438 399.503906 193.101562 C 400.148438 192.679688 400.828125 192.328125 401.546875 192.039062 C 402.261719 191.75 403 191.535156 403.757812 191.390625 C 404.515625 191.25 405.28125 191.179688 406.054688 191.1875 L 419.445312 191.1875 C 426 191.1875 426.882812 188.28125 421.472656 184.734375 L 385.449219 161.3125 C 380.039062 157.757812 371.09375 151.960938 365.648438 148.410156 L 329.125 123.929688 L 329.125 121.328125 L 420.582031 180.886719 C 427.203125 185.886719 427.566406 188.367188 427.082031 189.9375 C 426.59375 191.507812 424.875 193.375 419.453125 193.375 L 406.058594 193.375 C 405.433594 193.367188 404.8125 193.421875 404.195312 193.539062 C 403.582031 193.65625 402.984375 193.832031 402.402344 194.066406 C 401.820312 194.300781 401.265625 194.585938 400.742188 194.929688 C 400.21875 195.269531 399.730469 195.660156 399.28125 196.097656 C 398.835938 196.535156 398.433594 197.011719 398.078125 197.53125 C 397.722656 198.046875 397.421875 198.59375 397.175781 199.167969 C 396.925781 199.742188 396.738281 200.335938 396.605469 200.949219 C 396.476562 201.5625 396.402344 202.183594 396.394531 202.808594 L 396.394531 308.320312 C 396.382812 309.238281 396.28125 310.144531 396.09375 311.042969 C 395.902344 311.9375 395.628906 312.808594 395.265625 313.652344 C 394.90625 314.492188 394.464844 315.292969 393.945312 316.050781 C 393.429688 316.804688 392.839844 317.503906 392.183594 318.144531 C 391.53125 318.785156 390.816406 319.355469 390.050781 319.859375 C 389.28125 320.359375 388.472656 320.777344 387.621094 321.121094 C 386.769531 321.460938 385.894531 321.71875 384.992188 321.886719 C 384.089844 322.054688 383.183594 322.136719 382.265625 322.125 L 331.21875 322.125 Z M 331.21875 319.921875 " fill-opacity="1" fill-rule="nonzero"/><path fill="#c5a059" d="M 223.882812 306.804688 L 223.882812 212.167969 C 223.878906 211.027344 223.753906 209.898438 223.507812 208.78125 C 223.261719 207.667969 222.894531 206.589844 222.414062 205.554688 C 221.929688 204.519531 221.34375 203.546875 220.652344 202.640625 C 219.957031 201.730469 219.175781 200.910156 218.300781 200.171875 C 219.34375 201.386719 220.140625 202.742188 220.695312 204.246094 C 221.246094 205.746094 221.523438 207.296875 221.523438 208.894531 L 221.523438 303.492188 C 221.523438 304.808594 221.667969 306.113281 221.953125 307.398438 C 222.242188 308.6875 222.664062 309.925781 223.21875 311.121094 C 223.777344 312.316406 224.457031 313.4375 225.261719 314.484375 C 226.066406 315.527344 226.972656 316.476562 227.980469 317.324219 C 226.667969 315.886719 225.65625 314.261719 224.949219 312.445312 C 224.242188 310.632812 223.886719 308.753906 223.882812 306.804688 Z M 223.882812 306.804688 " fill-opacity="1" fill-rule="nonzero"/><path fill="#c5a059" d="M 421.019531 212.167969 L 421.019531 306.804688 C 421.015625 308.757812 420.664062 310.640625 419.957031 312.460938 C 419.25 314.277344 418.238281 315.910156 416.921875 317.351562 C 417.933594 316.5 418.84375 315.550781 419.644531 314.503906 C 420.449219 313.457031 421.132812 312.335938 421.691406 311.136719 C 422.25 309.941406 422.671875 308.695312 422.957031 307.40625 C 423.242188 306.117188 423.386719 304.8125 423.386719 303.492188 L 423.386719 208.894531 C 423.386719 207.296875 423.667969 205.75 424.222656 204.253906 C 424.777344 202.753906 425.578125 201.402344 426.621094 200.191406 C 425.746094 200.925781 424.964844 201.746094 424.269531 202.652344 C 423.574219 203.558594 422.984375 204.527344 422.5 205.5625 C 422.015625 206.597656 421.652344 207.671875 421.402344 208.785156 C 421.152344 209.898438 421.023438 211.027344 421.019531 212.167969 Z M 421.019531 212.167969 " fill-opacity="1" fill-rule="nonzero"/><g clip-path="url(#c5a8e2edb7)"><path fill="#c5a059" d="M 458.496094 182.375 L 336.875 101.300781 C 335.789062 100.648438 334.667969 100.074219 333.503906 99.574219 C 332.34375 99.074219 331.152344 98.652344 329.933594 98.316406 C 328.714844 97.976562 327.476562 97.722656 326.222656 97.550781 C 324.96875 97.382812 323.710938 97.296875 322.445312 97.296875 C 321.179688 97.296875 319.921875 97.382812 318.667969 97.550781 C 317.414062 97.722656 316.175781 97.976562 314.957031 98.316406 C 313.738281 98.652344 312.546875 99.074219 311.382812 99.574219 C 310.222656 100.074219 309.097656 100.648438 308.015625 101.300781 L 186.410156 182.375 C 180.730469 186.164062 180.238281 189.273438 180.824219 191.207031 C 181.230469 192.453125 182.011719 193.386719 183.164062 194.003906 C 182.523438 192.398438 183.984375 190.148438 187.722656 187.65625 L 235.40625 155.871094 L 261.648438 138.378906 L 309.332031 106.589844 C 310.320312 106 311.34375 105.480469 312.402344 105.03125 C 313.457031 104.582031 314.542969 104.203125 315.648438 103.898438 C 316.757812 103.59375 317.882812 103.363281 319.023438 103.207031 C 320.160156 103.054688 321.304688 102.976562 322.453125 102.976562 C 323.605469 102.976562 324.75 103.054688 325.886719 103.207031 C 327.027344 103.363281 328.152344 103.59375 329.257812 103.898438 C 330.367188 104.203125 331.449219 104.582031 332.507812 105.03125 C 333.566406 105.480469 334.589844 106 335.578125 106.589844 L 383.257812 138.378906 L 409.503906 155.871094 L 457.1875 187.65625 C 460.925781 190.148438 462.378906 192.394531 461.738281 194.003906 C 462.894531 193.386719 463.675781 192.457031 464.078125 191.207031 C 464.707031 189.28125 464.179688 186.164062 458.496094 182.375 Z M 458.496094 182.375 " fill-opacity="1" fill-rule="nonzero"/></g></svg>